<?xml version="1.0" encoding="utf-8"?>
<!-- Generator: Adobe Illustrator 27.3.1, SVG Export Plug-In . SVG Version: 6.00 Build 0)  -->
<svg version="1.1" id="Ebene_2_00000122699846761348669080000010402815223952956347_"
	 xmlns="http://www.w3.org/2000/svg" xmlns:xlink="http://www.w3.org/1999/xlink" x="0px" y="0px" viewBox="0 0 499.44 76.41"
	 style="enable-background:new 0 0 499.44 76.41;" xml:space="preserve">
<style type="text/css">
	.st0{fill:#FFFFFF;}
	.st1{fill:#174494;}
	.st2{fill:#FFEB00;}
	.st3{fill:none;stroke:#A5ADB6;stroke-width:0.5;stroke-miterlimit:10;}
	.st4{fill:#1E355E;}
	.st5{fill:#D40C4D;}
</style>
<g>
	<polygon class="st0" points="17.31,55.51 71.99,55.51 71.99,18.38 17.31,18.38 17.31,55.51 	"/>
	<polygon class="st1" points="18.36,54.45 70.94,54.45 70.94,19.4 18.36,19.4 18.36,54.45 	"/>
	<polyline class="st2" points="43.53,27.03 44.64,26.22 45.75,27.03 45.32,25.72 46.45,24.91 45.06,24.91 44.64,23.59 44.21,24.91 
		42.82,24.91 43.95,25.72 43.53,27.03 	"/>
	<polyline class="st2" points="37.78,28.57 38.89,27.77 40,28.57 39.58,27.27 40.71,26.46 39.32,26.46 38.89,25.13 38.47,26.46 
		37.08,26.46 38.21,27.27 37.78,28.57 	"/>
	<polyline class="st2" points="34.69,29.34 34.27,30.67 32.88,30.67 34.01,31.48 33.58,32.79 34.69,31.98 35.8,32.79 35.38,31.48 
		36.51,30.67 35.12,30.67 34.69,29.34 	"/>
	<polyline class="st2" points="33.15,37.71 34.26,38.52 33.84,37.21 34.97,36.4 33.58,36.4 33.15,35.07 32.73,36.4 31.34,36.4 
		32.47,37.21 32.04,38.52 33.15,37.71 	"/>
	<polyline class="st2" points="35.12,42.15 34.69,40.83 34.27,42.15 32.88,42.15 34.01,42.96 33.58,44.27 34.69,43.46 35.8,44.27 
		35.38,42.96 36.51,42.15 35.12,42.15 	"/>
	<polyline class="st2" points="39.33,46.36 38.9,45.04 38.48,46.36 37.09,46.36 38.21,47.17 37.79,48.48 38.9,47.67 40.01,48.48 
		39.59,47.17 40.72,46.36 39.33,46.36 	"/>
	<polyline class="st2" points="45.06,47.89 44.64,46.56 44.21,47.89 42.82,47.89 43.95,48.7 43.53,50.01 44.64,49.2 45.75,50.01 
		45.32,48.7 46.45,47.89 45.06,47.89 	"/>
	<polyline class="st2" points="50.8,46.36 50.37,45.04 49.95,46.36 48.56,46.36 49.68,47.17 49.26,48.48 50.37,47.67 51.48,48.48 
		51.06,47.17 52.18,46.36 50.8,46.36 	"/>
	<polyline class="st2" points="55.01,42.15 54.58,40.83 54.15,42.15 52.77,42.15 53.89,42.96 53.47,44.27 54.58,43.46 55.69,44.27 
		55.27,42.96 56.39,42.15 55.01,42.15 	"/>
	<polyline class="st2" points="57.92,36.38 56.53,36.38 56.1,35.06 55.68,36.39 54.29,36.38 55.42,37.19 55,38.5 56.1,37.69 
		57.21,38.5 56.79,37.19 57.92,36.38 	"/>
	<polyline class="st2" points="53.47,32.77 54.58,31.96 55.69,32.77 55.27,31.46 56.39,30.65 55.01,30.65 54.58,29.32 54.15,30.65 
		52.77,30.65 53.89,31.46 53.47,32.77 	"/>
	<polyline class="st2" points="50.39,25.13 49.96,26.46 48.57,26.46 49.7,27.27 49.28,28.58 50.39,27.77 51.5,28.58 51.08,27.27 
		52.2,26.46 50.81,26.46 50.39,25.13 	"/>
	<polygon class="st1" points="78.53,32.71 78.53,24.09 80.27,24.09 80.27,27.92 83.79,24.09 86.14,24.09 82.89,27.45 86.31,32.71 
		84.06,32.71 81.69,28.66 80.27,30.11 80.27,32.71 78.53,32.71 	"/>
	<path class="st1" d="M88.51,29.59c0,0.62,0.15,1.09,0.44,1.42c0.29,0.33,0.66,0.49,1.09,0.49c0.43,0,0.79-0.16,1.09-0.49
		c0.29-0.33,0.44-0.81,0.44-1.44c0-0.61-0.15-1.08-0.44-1.41c-0.29-0.33-0.65-0.49-1.09-0.49c-0.43,0-0.79,0.16-1.09,0.49
		C88.66,28.49,88.51,28.97,88.51,29.59L88.51,29.59z M86.82,29.5c0-0.55,0.14-1.08,0.41-1.59c0.27-0.51,0.65-0.91,1.15-1.18
		c0.5-0.27,1.05-0.41,1.66-0.41c0.95,0,1.72,0.31,2.32,0.92c0.6,0.61,0.91,1.39,0.91,2.33c0,0.95-0.31,1.73-0.92,2.35
		c-0.61,0.62-1.38,0.93-2.3,0.93c-0.57,0-1.12-0.13-1.64-0.39c-0.52-0.26-0.92-0.64-1.19-1.14C86.95,30.83,86.82,30.22,86.82,29.5
		L86.82,29.5z"/>
	<path class="st1" d="M98.52,32.71v-6.25h1.65v6.25H98.52L98.52,32.71z M98.52,25.62v-1.53h1.65v1.53H98.52L98.52,25.62z
		 M93.88,26.46h0.92v-0.47c0-0.53,0.06-0.92,0.17-1.18c0.11-0.26,0.32-0.47,0.62-0.63c0.3-0.16,0.68-0.24,1.14-0.24
		c0.47,0,0.93,0.07,1.38,0.21l-0.22,1.15c-0.26-0.06-0.52-0.09-0.76-0.09c-0.24,0-0.41,0.06-0.52,0.17
		c-0.1,0.11-0.16,0.33-0.16,0.64v0.44h1.24v1.3h-1.24v4.95H94.8v-4.95h-0.92V26.46L93.88,26.46z"/>
	<path class="st1" d="M107.61,32.71h-1.65v-3.19c0-0.67-0.04-1.11-0.11-1.31c-0.07-0.2-0.19-0.35-0.34-0.46
		c-0.16-0.11-0.35-0.16-0.57-0.16c-0.29,0-0.54,0.08-0.77,0.24c-0.23,0.16-0.38,0.37-0.47,0.62c-0.08,0.26-0.13,0.74-0.13,1.44v2.83
		h-1.65v-6.25h1.54v0.92c0.55-0.71,1.23-1.06,2.06-1.06c0.36,0,0.7,0.07,1,0.2c0.3,0.13,0.53,0.3,0.69,0.5
		c0.15,0.2,0.26,0.44,0.32,0.69c0.06,0.26,0.09,0.63,0.09,1.11V32.71L107.61,32.71z"/>
	<path class="st1" d="M112.73,29.71c-0.21,0.07-0.55,0.15-1.01,0.25c-0.46,0.1-0.76,0.19-0.9,0.29c-0.22,0.15-0.32,0.35-0.32,0.58
		c0,0.23,0.09,0.43,0.26,0.6c0.17,0.17,0.39,0.25,0.66,0.25c0.3,0,0.58-0.1,0.85-0.29c0.2-0.15,0.33-0.33,0.39-0.55
		c0.04-0.14,0.06-0.41,0.06-0.81V29.71L112.73,29.71z M110.52,28.37l-1.5-0.27c0.17-0.6,0.46-1.05,0.87-1.34
		c0.41-0.29,1.02-0.44,1.84-0.44c0.74,0,1.29,0.09,1.65,0.26c0.36,0.17,0.61,0.4,0.76,0.67c0.15,0.27,0.22,0.76,0.22,1.48
		l-0.02,1.93c0,0.55,0.03,0.95,0.08,1.22c0.05,0.26,0.15,0.54,0.3,0.84h-1.64c-0.04-0.11-0.1-0.27-0.16-0.49
		c-0.03-0.1-0.05-0.16-0.06-0.19c-0.28,0.27-0.58,0.48-0.91,0.62c-0.32,0.14-0.66,0.21-1.03,0.21c-0.64,0-1.15-0.17-1.52-0.52
		c-0.37-0.35-0.56-0.79-0.56-1.32c0-0.35,0.08-0.67,0.25-0.94c0.17-0.28,0.41-0.49,0.71-0.64c0.3-0.15,0.74-0.28,1.32-0.39
		c0.77-0.15,1.31-0.28,1.61-0.41v-0.16c0-0.32-0.08-0.54-0.24-0.68c-0.16-0.14-0.45-0.2-0.89-0.2c-0.29,0-0.52,0.06-0.69,0.17
		C110.75,27.88,110.62,28.08,110.52,28.37L110.52,28.37z"/>
	<path class="st1" d="M121.67,32.71h-1.65v-3.19c0-0.67-0.04-1.11-0.11-1.31c-0.07-0.2-0.19-0.35-0.34-0.46
		c-0.16-0.11-0.35-0.16-0.57-0.16c-0.29,0-0.54,0.08-0.77,0.24c-0.23,0.16-0.38,0.37-0.47,0.62c-0.08,0.26-0.13,0.74-0.13,1.44v2.83
		h-1.65v-6.25h1.54v0.92c0.55-0.71,1.23-1.06,2.06-1.06c0.36,0,0.7,0.07,1,0.2c0.3,0.13,0.53,0.3,0.69,0.5
		c0.15,0.2,0.26,0.44,0.32,0.69c0.06,0.26,0.09,0.63,0.09,1.11V32.71L121.67,32.71z"/>
	<path class="st1" d="M122.68,32.71v-1.29l2.34-2.69c0.38-0.44,0.67-0.75,0.85-0.94c-0.19,0.01-0.45,0.02-0.76,0.02l-2.21,0.01
		v-1.37h5.17v1.17l-2.39,2.75l-0.84,0.91c0.46-0.03,0.74-0.04,0.85-0.04h2.56v1.45H122.68L122.68,32.71z"/>
	<path class="st1" d="M129.37,32.71v-6.25h1.65v6.25H129.37L129.37,32.71z M129.37,25.62v-1.53h1.65v1.53H129.37L129.37,25.62z"/>
	<path class="st1" d="M136.43,29.05c-0.01-0.48-0.14-0.84-0.37-1.09c-0.24-0.25-0.52-0.37-0.86-0.37c-0.36,0-0.66,0.13-0.89,0.39
		c-0.24,0.26-0.35,0.62-0.35,1.07H136.43L136.43,29.05z M136.34,30.72l1.65,0.28c-0.21,0.6-0.55,1.06-1,1.38
		c-0.46,0.32-1.03,0.47-1.72,0.47c-1.09,0-1.89-0.36-2.41-1.06c-0.41-0.57-0.62-1.29-0.62-2.15c0-1.04,0.27-1.85,0.81-2.43
		c0.54-0.59,1.23-0.88,2.05-0.88c0.93,0,1.66,0.31,2.2,0.92c0.54,0.61,0.79,1.55,0.77,2.82h-4.14c0.01,0.49,0.15,0.87,0.4,1.14
		c0.26,0.27,0.57,0.41,0.95,0.41c0.26,0,0.48-0.07,0.65-0.21C136.11,31.27,136.25,31.04,136.34,30.72L136.34,30.72z"/>
	<path class="st1" d="M141,32.71h-1.65v-6.25h1.54v0.89c0.26-0.42,0.5-0.7,0.71-0.83c0.21-0.13,0.45-0.2,0.72-0.2
		c0.38,0,0.74,0.1,1.09,0.31l-0.51,1.44c-0.28-0.18-0.54-0.27-0.78-0.27c-0.23,0-0.43,0.06-0.59,0.19
		c-0.16,0.13-0.29,0.36-0.38,0.69c-0.09,0.33-0.14,1.03-0.14,2.09V32.71L141,32.71z"/>
	<path class="st1" d="M146.98,26.46v1.32h-1.13v2.52c0,0.51,0.01,0.81,0.03,0.89c0.02,0.08,0.07,0.15,0.15,0.21
		c0.08,0.06,0.17,0.08,0.28,0.08c0.15,0,0.37-0.05,0.66-0.16l0.14,1.28c-0.38,0.16-0.82,0.25-1.31,0.25c-0.3,0-0.57-0.05-0.81-0.15
		c-0.24-0.1-0.41-0.23-0.53-0.39c-0.11-0.16-0.19-0.37-0.23-0.64c-0.04-0.19-0.05-0.58-0.05-1.17v-2.72h-0.76v-1.32h0.76v-1.24
		l1.66-0.96v2.21H146.98L146.98,26.46z"/>
	<path class="st1" d="M153.19,32.71l-2.52-6.25h1.74l1.18,3.19l0.34,1.06c0.09-0.27,0.15-0.45,0.17-0.54
		c0.06-0.18,0.11-0.35,0.18-0.53l1.19-3.19h1.7l-2.48,6.25H153.19L153.19,32.71z"/>
	<path class="st1" d="M159.49,29.59c0,0.62,0.15,1.09,0.44,1.42c0.29,0.33,0.66,0.49,1.09,0.49c0.43,0,0.79-0.16,1.09-0.49
		c0.29-0.33,0.44-0.81,0.44-1.44c0-0.61-0.15-1.08-0.44-1.41c-0.29-0.33-0.65-0.49-1.09-0.49c-0.43,0-0.79,0.16-1.09,0.49
		C159.63,28.49,159.49,28.97,159.49,29.59L159.49,29.59z M157.79,29.5c0-0.55,0.14-1.08,0.41-1.59c0.27-0.51,0.65-0.91,1.15-1.18
		c0.5-0.27,1.05-0.41,1.66-0.41c0.95,0,1.72,0.31,2.32,0.92c0.6,0.61,0.91,1.39,0.91,2.33c0,0.95-0.31,1.73-0.92,2.35
		c-0.61,0.62-1.38,0.93-2.3,0.93c-0.57,0-1.12-0.13-1.64-0.39c-0.52-0.26-0.92-0.64-1.19-1.14
		C157.93,30.83,157.79,30.22,157.79,29.5L157.79,29.5z"/>
	<path class="st1" d="M171.22,32.71h-1.65v-3.19c0-0.67-0.04-1.11-0.11-1.31c-0.07-0.2-0.19-0.35-0.34-0.46
		c-0.16-0.11-0.35-0.16-0.57-0.16c-0.29,0-0.54,0.08-0.77,0.24c-0.23,0.16-0.38,0.37-0.47,0.62c-0.08,0.26-0.13,0.74-0.13,1.44v2.83
		h-1.65v-6.25h1.54v0.92c0.55-0.71,1.23-1.06,2.06-1.06c0.36,0,0.7,0.07,1,0.2c0.3,0.13,0.53,0.3,0.69,0.5
		c0.15,0.2,0.26,0.44,0.32,0.69c0.06,0.26,0.09,0.63,0.09,1.11V32.71L171.22,32.71z"/>
	<path class="st1" d="M177.56,29.45c0,0.67,0.09,1.15,0.28,1.45c0.27,0.43,0.64,0.65,1.12,0.65c0.38,0,0.7-0.16,0.97-0.49
		c0.27-0.32,0.4-0.81,0.4-1.45c0-0.72-0.13-1.23-0.39-1.55c-0.26-0.32-0.59-0.47-0.99-0.47c-0.39,0-0.72,0.16-0.99,0.47
		C177.69,28.37,177.56,28.83,177.56,29.45L177.56,29.45z M181.97,32.71h-1.54v-0.92c-0.26,0.36-0.56,0.62-0.9,0.8
		c-0.35,0.17-0.7,0.26-1.05,0.26c-0.72,0-1.33-0.29-1.84-0.87c-0.51-0.58-0.77-1.39-0.77-2.42c0-1.06,0.25-1.86,0.75-2.42
		c0.5-0.55,1.13-0.83,1.89-0.83c0.7,0,1.3,0.29,1.81,0.87v-3.11h1.65V32.71L181.97,32.71z"/>
	<path class="st1" d="M187.32,29.05c-0.01-0.48-0.14-0.84-0.37-1.09c-0.24-0.25-0.52-0.37-0.86-0.37c-0.36,0-0.66,0.13-0.89,0.39
		c-0.24,0.26-0.35,0.62-0.35,1.07H187.32L187.32,29.05z M187.22,30.72l1.65,0.28c-0.21,0.6-0.55,1.06-1,1.38
		c-0.46,0.32-1.03,0.47-1.72,0.47c-1.09,0-1.89-0.36-2.41-1.06c-0.41-0.57-0.62-1.29-0.62-2.15c0-1.04,0.27-1.85,0.81-2.43
		c0.54-0.59,1.23-0.88,2.05-0.88c0.93,0,1.66,0.31,2.2,0.92c0.54,0.61,0.79,1.55,0.77,2.82h-4.14c0.01,0.49,0.15,0.87,0.4,1.14
		c0.26,0.27,0.57,0.41,0.95,0.41c0.26,0,0.48-0.07,0.65-0.21C187,31.27,187.13,31.04,187.22,30.72L187.22,30.72z"/>
	<path class="st1" d="M191.89,32.71h-1.65v-6.25h1.54v0.89c0.26-0.42,0.5-0.7,0.71-0.83c0.21-0.13,0.45-0.2,0.71-0.2
		c0.38,0,0.74,0.1,1.09,0.31l-0.51,1.44c-0.28-0.18-0.54-0.27-0.78-0.27c-0.23,0-0.43,0.06-0.59,0.19
		c-0.16,0.13-0.29,0.36-0.38,0.69c-0.09,0.33-0.14,1.03-0.14,2.09V32.71L191.89,32.71z"/>
	<polygon class="st1" points="78.51,47.17 78.51,38.55 84.91,38.55 84.91,40.01 80.25,40.01 80.25,41.92 84.58,41.92 84.58,43.37 
		80.25,43.37 80.25,45.72 85.07,45.72 85.07,47.17 78.51,47.17 	"/>
	<path class="st1" d="M90.65,47.17v-0.94c-0.23,0.33-0.53,0.6-0.9,0.79c-0.37,0.19-0.76,0.29-1.17,0.29c-0.42,0-0.8-0.09-1.13-0.28
		c-0.33-0.18-0.57-0.44-0.72-0.78c-0.15-0.33-0.22-0.79-0.22-1.38v-3.95h1.65v2.87c0,0.88,0.03,1.42,0.09,1.62
		c0.06,0.2,0.17,0.36,0.33,0.47c0.16,0.12,0.36,0.17,0.61,0.17c0.28,0,0.54-0.08,0.76-0.23c0.22-0.15,0.38-0.35,0.46-0.58
		c0.08-0.23,0.12-0.79,0.12-1.69v-2.64h1.65v6.25H90.65L90.65,47.17z"/>
	<path class="st1" d="M95.48,47.17h-1.65v-6.25h1.54v0.89c0.26-0.42,0.5-0.7,0.71-0.83c0.21-0.13,0.45-0.2,0.71-0.2
		c0.38,0,0.74,0.1,1.09,0.31l-0.51,1.44c-0.28-0.18-0.54-0.27-0.78-0.27c-0.23,0-0.43,0.06-0.59,0.19
		c-0.16,0.13-0.29,0.36-0.38,0.69c-0.09,0.33-0.14,1.03-0.14,2.09V47.17L95.48,47.17z"/>
	<path class="st1" d="M99.9,44.05c0,0.62,0.15,1.09,0.44,1.42c0.29,0.33,0.66,0.49,1.09,0.49c0.43,0,0.79-0.16,1.09-0.49
		c0.29-0.33,0.44-0.81,0.44-1.44c0-0.61-0.15-1.08-0.44-1.41c-0.29-0.33-0.65-0.49-1.09-0.49c-0.43,0-0.79,0.16-1.09,0.49
		C100.05,42.95,99.9,43.43,99.9,44.05L99.9,44.05z M98.2,43.96c0-0.55,0.14-1.08,0.41-1.59c0.27-0.51,0.65-0.91,1.15-1.18
		c0.5-0.27,1.05-0.41,1.66-0.41c0.95,0,1.72,0.31,2.32,0.92c0.6,0.61,0.91,1.39,0.91,2.33c0,0.95-0.31,1.73-0.92,2.35
		c-0.61,0.62-1.38,0.93-2.3,0.93c-0.57,0-1.12-0.13-1.64-0.39c-0.52-0.26-0.92-0.64-1.19-1.14C98.34,45.29,98.2,44.68,98.2,43.96
		L98.2,43.96z"/>
	<path class="st1" d="M107.54,43.94c0,0.7,0.14,1.22,0.42,1.56c0.28,0.34,0.62,0.5,1.02,0.5c0.38,0,0.7-0.15,0.96-0.46
		c0.25-0.31,0.38-0.81,0.38-1.52c0-0.66-0.13-1.14-0.39-1.46c-0.26-0.32-0.59-0.48-0.98-0.48c-0.4,0-0.74,0.16-1.01,0.47
		C107.67,42.87,107.54,43.33,107.54,43.94L107.54,43.94z M105.9,40.92h1.54v0.92c0.2-0.31,0.47-0.57,0.81-0.76
		c0.34-0.2,0.72-0.29,1.14-0.29c0.73,0,1.34,0.28,1.85,0.85c0.51,0.57,0.76,1.36,0.76,2.38c0,1.04-0.26,1.85-0.77,2.43
		c-0.51,0.58-1.13,0.87-1.85,0.87c-0.35,0-0.66-0.07-0.94-0.21c-0.28-0.14-0.58-0.37-0.89-0.71v3.15h-1.65V40.92L105.9,40.92z"/>
	<path class="st1" d="M116.36,39.82V38.4h1.42v1.42H116.36L116.36,39.82z M116.76,44.17c-0.21,0.07-0.55,0.15-1.01,0.25
		c-0.46,0.1-0.76,0.19-0.9,0.29c-0.22,0.15-0.32,0.35-0.32,0.58c0,0.23,0.09,0.43,0.26,0.6c0.17,0.17,0.39,0.25,0.66,0.25
		c0.3,0,0.58-0.1,0.85-0.29c0.2-0.15,0.33-0.33,0.39-0.55c0.04-0.14,0.06-0.41,0.06-0.81V44.17L116.76,44.17z M113.83,39.82V38.4
		h1.42v1.42H113.83L113.83,39.82z M114.54,42.83l-1.5-0.27c0.17-0.6,0.46-1.05,0.87-1.34c0.41-0.29,1.02-0.44,1.84-0.44
		c0.74,0,1.29,0.09,1.65,0.26c0.36,0.17,0.61,0.4,0.76,0.67c0.15,0.27,0.22,0.76,0.22,1.48l-0.02,1.93c0,0.55,0.03,0.95,0.08,1.22
		c0.05,0.26,0.15,0.54,0.3,0.84h-1.64c-0.04-0.11-0.1-0.27-0.16-0.49c-0.03-0.1-0.05-0.16-0.06-0.19c-0.28,0.27-0.58,0.48-0.91,0.62
		c-0.32,0.14-0.66,0.21-1.03,0.21c-0.64,0-1.15-0.17-1.52-0.52c-0.37-0.35-0.56-0.79-0.56-1.32c0-0.35,0.08-0.67,0.25-0.94
		c0.17-0.28,0.41-0.49,0.71-0.64c0.3-0.15,0.74-0.28,1.32-0.39c0.77-0.14,1.31-0.28,1.61-0.41v-0.16c0-0.32-0.08-0.54-0.24-0.68
		c-0.16-0.14-0.45-0.2-0.89-0.2c-0.29,0-0.52,0.06-0.69,0.17C114.78,42.34,114.65,42.54,114.54,42.83L114.54,42.83z"/>
	<path class="st1" d="M120.01,47.17v-6.25h1.65v6.25H120.01L120.01,47.17z M120.01,40.08v-1.53h1.65v1.53H120.01L120.01,40.08z"/>
	<path class="st1" d="M122.78,45.39l1.66-0.25c0.07,0.32,0.21,0.57,0.43,0.73c0.22,0.17,0.52,0.25,0.91,0.25
		c0.43,0,0.75-0.08,0.96-0.24c0.15-0.11,0.22-0.26,0.22-0.44c0-0.13-0.04-0.23-0.12-0.31c-0.08-0.08-0.27-0.15-0.55-0.22
		c-1.33-0.29-2.18-0.56-2.54-0.81c-0.49-0.34-0.74-0.81-0.74-1.41c0-0.54,0.21-1,0.64-1.37c0.43-0.37,1.09-0.55,1.99-0.55
		c0.86,0,1.49,0.14,1.91,0.42c0.42,0.28,0.7,0.69,0.86,1.24l-1.56,0.29c-0.07-0.24-0.19-0.43-0.38-0.56
		c-0.19-0.13-0.45-0.19-0.8-0.19c-0.44,0-0.75,0.06-0.94,0.18c-0.13,0.09-0.19,0.2-0.19,0.34c0,0.12,0.05,0.22,0.16,0.3
		c0.15,0.11,0.66,0.26,1.54,0.46c0.88,0.2,1.5,0.45,1.84,0.74c0.35,0.29,0.52,0.7,0.52,1.23c0,0.57-0.24,1.06-0.72,1.48
		c-0.48,0.41-1.19,0.62-2.12,0.62c-0.85,0-1.53-0.17-2.02-0.52C123.25,46.45,122.93,45.98,122.78,45.39L122.78,45.39z"/>
	<path class="st1" d="M135.51,42.77l-1.63,0.29c-0.06-0.33-0.18-0.57-0.37-0.74c-0.19-0.16-0.45-0.25-0.76-0.25
		c-0.41,0-0.74,0.14-0.99,0.43c-0.25,0.28-0.37,0.76-0.37,1.43c0,0.74,0.12,1.26,0.37,1.57c0.25,0.31,0.58,0.46,1,0.46
		c0.31,0,0.57-0.09,0.77-0.27c0.2-0.18,0.34-0.49,0.42-0.92l1.62,0.28c-0.17,0.75-0.49,1.31-0.97,1.69
		c-0.48,0.38-1.12,0.57-1.92,0.57c-0.91,0-1.64-0.29-2.19-0.87c-0.54-0.58-0.81-1.37-0.81-2.39c0-1.03,0.27-1.83,0.82-2.41
		c0.55-0.57,1.28-0.86,2.21-0.86c0.76,0,1.37,0.16,1.82,0.49C134.99,41.6,135.31,42.1,135.51,42.77L135.51,42.77z"/>
	<path class="st1" d="M138.41,38.55v3.17c0.53-0.62,1.17-0.94,1.91-0.94c0.38,0,0.72,0.07,1.03,0.21c0.31,0.14,0.54,0.32,0.69,0.54
		c0.15,0.22,0.26,0.46,0.32,0.73c0.06,0.27,0.09,0.68,0.09,1.24v3.67h-1.65v-3.3c0-0.66-0.03-1.07-0.09-1.25
		c-0.06-0.18-0.17-0.32-0.33-0.42c-0.16-0.1-0.36-0.16-0.6-0.16c-0.27,0-0.52,0.07-0.74,0.2c-0.22,0.13-0.37,0.33-0.47,0.6
		c-0.1,0.27-0.15,0.67-0.15,1.19v3.13h-1.65v-8.63H138.41L138.41,38.55z"/>
	<path class="st1" d="M147.84,43.51c-0.01-0.48-0.14-0.84-0.37-1.09c-0.24-0.25-0.52-0.37-0.86-0.37c-0.36,0-0.66,0.13-0.89,0.39
		c-0.24,0.26-0.35,0.62-0.35,1.07H147.84L147.84,43.51z M147.74,45.18l1.65,0.28c-0.21,0.6-0.55,1.06-1,1.38
		c-0.46,0.32-1.03,0.47-1.72,0.47c-1.09,0-1.89-0.36-2.41-1.06c-0.41-0.57-0.62-1.29-0.62-2.15c0-1.04,0.27-1.85,0.81-2.43
		c0.54-0.59,1.23-0.88,2.05-0.88c0.93,0,1.66,0.31,2.2,0.92c0.54,0.61,0.79,1.55,0.77,2.82h-4.14c0.01,0.49,0.15,0.87,0.4,1.14
		s0.57,0.41,0.95,0.41c0.26,0,0.48-0.07,0.65-0.21C147.52,45.73,147.65,45.5,147.74,45.18L147.74,45.18z"/>
	<path class="st1" d="M156.51,47.17h-1.65v-3.19c0-0.67-0.04-1.11-0.11-1.31c-0.07-0.2-0.19-0.35-0.34-0.46
		c-0.16-0.11-0.35-0.16-0.57-0.16c-0.29,0-0.54,0.08-0.77,0.24c-0.23,0.16-0.38,0.37-0.47,0.62c-0.08,0.26-0.13,0.74-0.13,1.44v2.83
		h-1.65v-6.25h1.54v0.92c0.55-0.71,1.23-1.06,2.06-1.06c0.36,0,0.7,0.07,1,0.2c0.3,0.13,0.53,0.3,0.69,0.5
		c0.15,0.2,0.26,0.44,0.32,0.69c0.06,0.26,0.09,0.63,0.09,1.11V47.17L156.51,47.17z"/>
	<path class="st1" d="M161.53,38.55h1.74v4.67c0,0.74,0.02,1.22,0.06,1.44c0.07,0.35,0.25,0.64,0.53,0.85
		c0.28,0.21,0.66,0.32,1.15,0.32c0.49,0,0.87-0.1,1.12-0.3c0.25-0.2,0.4-0.45,0.45-0.74c0.05-0.29,0.08-0.78,0.08-1.47v-4.77h1.74
		v4.53c0,1.04-0.05,1.77-0.14,2.19c-0.09,0.43-0.27,0.79-0.52,1.08c-0.25,0.29-0.59,0.53-1.02,0.7c-0.42,0.17-0.98,0.26-1.66,0.26
		c-0.82,0-1.45-0.1-1.87-0.29c-0.43-0.19-0.76-0.44-1.01-0.74c-0.25-0.3-0.41-0.62-0.49-0.96c-0.11-0.49-0.17-1.22-0.17-2.19V38.55
		L161.53,38.55z"/>
	<path class="st1" d="M175.92,47.17h-1.65v-3.19c0-0.67-0.04-1.11-0.11-1.31c-0.07-0.2-0.19-0.35-0.34-0.46
		c-0.16-0.11-0.35-0.16-0.57-0.16c-0.29,0-0.54,0.08-0.77,0.24c-0.23,0.16-0.38,0.37-0.47,0.62c-0.08,0.26-0.13,0.74-0.13,1.44v2.83
		h-1.65v-6.25h1.54v0.92c0.55-0.71,1.23-1.06,2.06-1.06c0.36,0,0.7,0.07,1,0.2c0.3,0.13,0.53,0.3,0.69,0.5
		c0.15,0.2,0.26,0.44,0.32,0.69c0.06,0.26,0.09,0.63,0.09,1.11V47.17L175.92,47.17z"/>
	<path class="st1" d="M177.6,47.17v-6.25h1.65v6.25H177.6L177.6,47.17z M177.6,40.08v-1.53h1.65v1.53H177.6L177.6,40.08z"/>
	<path class="st1" d="M182.26,44.05c0,0.62,0.15,1.09,0.44,1.42c0.29,0.33,0.66,0.49,1.09,0.49s0.79-0.16,1.09-0.49
		c0.29-0.33,0.44-0.81,0.44-1.44c0-0.61-0.15-1.08-0.44-1.41c-0.29-0.33-0.65-0.49-1.09-0.49s-0.79,0.16-1.09,0.49
		C182.4,42.95,182.26,43.43,182.26,44.05L182.26,44.05z M180.56,43.96c0-0.55,0.14-1.08,0.41-1.59c0.27-0.51,0.65-0.91,1.15-1.18
		c0.5-0.27,1.05-0.41,1.66-0.41c0.95,0,1.72,0.31,2.32,0.92c0.6,0.61,0.91,1.39,0.91,2.33c0,0.95-0.3,1.73-0.92,2.35
		c-0.61,0.62-1.38,0.93-2.3,0.93c-0.57,0-1.12-0.13-1.64-0.39c-0.52-0.26-0.92-0.64-1.19-1.14
		C180.7,45.29,180.56,44.68,180.56,43.96L180.56,43.96z"/>
	<path class="st1" d="M193.99,47.17h-1.65v-3.19c0-0.67-0.04-1.11-0.11-1.31c-0.07-0.2-0.19-0.35-0.34-0.46
		c-0.16-0.11-0.35-0.16-0.57-0.16c-0.29,0-0.54,0.08-0.77,0.24c-0.23,0.16-0.38,0.37-0.47,0.62c-0.08,0.26-0.13,0.74-0.13,1.44v2.83
		h-1.65v-6.25h1.54v0.92c0.55-0.71,1.23-1.06,2.06-1.06c0.36,0,0.7,0.07,1,0.2c0.3,0.13,0.53,0.3,0.69,0.5
		c0.15,0.2,0.26,0.44,0.32,0.69c0.06,0.26,0.09,0.63,0.09,1.11V47.17L193.99,47.17z"/>
</g>
<line class="st3" x1="219.18" y1="0" x2="219.18" y2="76.41"/>
<g id="Logo">
	<g id="Text">
		<g id="Schleswig-Holstein">
			<path class="st4" d="M295.18,36.7c-0.22-0.3-0.63-0.48-1.04-0.48c-0.48,0-1,0.22-1,0.78c0,0.52,0.45,0.67,1.11,0.89
				c0.74,0.22,1.67,0.56,1.67,1.67c0,1.22-0.97,1.82-2.08,1.82c-0.74,0-1.52-0.3-1.97-0.82l0.74-0.67c0.3,0.37,0.82,0.63,1.26,0.63
				c0.48,0,1.04-0.22,1.04-0.85c0-0.59-0.59-0.78-1.34-1c-0.71-0.22-1.45-0.56-1.45-1.63c0-1.15,1.08-1.67,2.12-1.67
				c0.59,0,1.22,0.19,1.67,0.63L295.18,36.7z"/>
			<path class="st4" d="M299.64,38.44c-0.15-0.22-0.48-0.37-0.82-0.37c-0.71,0-1.08,0.63-1.08,1.26c0,0.6,0.37,1.26,1.11,1.26
				c0.3,0,0.63-0.11,0.82-0.33l0.59,0.63c-0.33,0.33-0.85,0.56-1.45,0.56c-1.15,0-2.12-0.78-2.12-2.08c0-1.26,0.93-2.08,2.08-2.08
				c0.56,0,1.15,0.22,1.49,0.59L299.64,38.44z"/>
			<path class="st4" d="M304.65,38.81v2.45h-1v-2.15c0-0.45-0.11-1.04-0.71-1.04c-0.63,0-0.93,0.52-0.93,1.04v2.12h-0.97V35.1h0.97
				v2.78l0,0c0.15-0.33,0.59-0.67,1.15-0.67C304.21,37.26,304.65,38.03,304.65,38.81z"/>
			<path class="st4" d="M305.88,35.1h0.97v6.16h-0.97V35.1z"/>
			<path class="st4" d="M311.82,39.59h-2.97c0.04,0.56,0.56,0.97,1.11,0.97c0.48,0,0.82-0.19,1.04-0.52l0.63,0.52
				c-0.37,0.52-0.93,0.78-1.67,0.78c-1.19,0-2.08-0.78-2.08-2.04c0-1.26,0.89-2.08,2.08-2.08c1.08,0,1.89,0.71,1.89,2.12
				C311.85,39.44,311.85,39.52,311.82,39.59z M310.85,38.93c0-0.52-0.3-0.93-0.93-0.93c-0.59,0-1.04,0.41-1.08,0.93H310.85z"/>
			<path class="st4" d="M315.04,38.41c-0.19-0.22-0.48-0.41-0.85-0.41c-0.3,0-0.63,0.11-0.63,0.41c0,0.3,0.3,0.37,0.85,0.52
				c0.59,0.15,1.26,0.41,1.26,1.15c0,0.97-0.78,1.3-1.63,1.3c-0.59,0-1.22-0.22-1.6-0.63l0.63-0.59c0.22,0.26,0.59,0.48,1,0.48
				c0.3,0,0.63-0.11,0.63-0.45c0-0.33-0.3-0.41-0.89-0.56c-0.59-0.15-1.15-0.37-1.15-1.11c0-0.85,0.78-1.23,1.56-1.23
				c0.56,0,1.15,0.19,1.45,0.59L315.04,38.41z"/>
			<path class="st4" d="M316.16,37.37h1.04l0.82,2.78l0,0l0.82-2.78h1.04l0.85,2.78l0,0l0.82-2.78h1l-1.34,3.9h-1l-0.89-2.71l0,0
				l-0.82,2.71h-1L316.16,37.37z"/>
			<path class="st4" d="M323.88,35.44c0.37,0,0.63,0.26,0.63,0.59c0,0.33-0.26,0.59-0.63,0.59s-0.63-0.26-0.63-0.59
				C323.25,35.73,323.51,35.44,323.88,35.44z M323.4,37.37h0.97v3.9h-0.97V37.37z"/>
			<path class="st4" d="M329.56,37.37v3.56c0,1.41-0.67,2.3-2.19,2.3c-0.63,0-1.41-0.22-1.93-0.63l0.56-0.74
				c0.37,0.37,0.89,0.56,1.37,0.56c0.93,0,1.23-0.56,1.23-1.34v-0.3l0,0c-0.3,0.37-0.74,0.59-1.26,0.59c-1.15,0-1.93-0.93-1.93-2.04
				c0-1.11,0.74-2.04,1.89-2.04c0.56,0,1.04,0.22,1.34,0.71l0,0V37.4h0.93L329.56,37.37L329.56,37.37z M326.37,39.26
				c0,0.63,0.41,1.23,1.11,1.23c0.71,0,1.15-0.59,1.15-1.23c0-0.67-0.45-1.22-1.15-1.22C326.78,38.03,326.37,38.59,326.37,39.26z"/>
			<path class="st4" d="M332.6,39.67h-1.93v-0.82h1.93V39.67z"/>
			<path class="st4" d="M333.79,35.51h1.04v2.34h2.67v-2.34h1.04v5.75h-1.04V38.7h-2.67v2.56h-1.04V35.51z"/>
			<path class="st4" d="M341.77,37.26c1.19,0,2.12,0.82,2.12,2.04s-0.93,2.08-2.12,2.08c-1.19,0-2.12-0.85-2.12-2.08
				S340.58,37.26,341.77,37.26z M341.77,40.56c0.78,0,1.11-0.67,1.11-1.26s-0.37-1.26-1.11-1.26c-0.74,0-1.11,0.63-1.11,1.26
				C340.62,39.89,340.99,40.56,341.77,40.56z"/>
			<path class="st4" d="M344.93,35.1h0.97v6.16h-0.97V35.1z"/>
			<path class="st4" d="M349.34,38.41c-0.19-0.22-0.48-0.41-0.85-0.41c-0.3,0-0.63,0.11-0.63,0.41c0,0.3,0.3,0.37,0.85,0.52
				c0.59,0.15,1.26,0.41,1.26,1.15c0,0.97-0.78,1.3-1.63,1.3c-0.59,0-1.22-0.22-1.6-0.63l0.63-0.59c0.22,0.26,0.59,0.48,1,0.48
				c0.3,0,0.63-0.11,0.63-0.45c0-0.33-0.3-0.41-0.89-0.56c-0.59-0.15-1.15-0.37-1.15-1.11c0-0.85,0.78-1.23,1.56-1.23
				c0.56,0,1.15,0.19,1.45,0.59L349.34,38.41z"/>
			<path class="st4" d="M350.53,38.15v-0.78h0.67v-1.11h0.97v1.11h0.97v0.78h-0.97v1.82c0,0.33,0.07,0.59,0.52,0.59
				c0.15,0,0.3-0.04,0.41-0.07l0.04,0.78c-0.19,0.07-0.45,0.11-0.63,0.11c-1.04,0-1.26-0.63-1.26-1.37v-1.82h-0.71V38.15
				L350.53,38.15z"/>
			<path class="st4" d="M357.62,39.59h-2.97c0.04,0.56,0.56,0.97,1.11,0.97c0.48,0,0.82-0.19,1.04-0.52l0.63,0.52
				c-0.37,0.52-0.93,0.78-1.67,0.78c-1.19,0-2.08-0.78-2.08-2.04c0-1.26,0.89-2.08,2.08-2.08c1.08,0,1.89,0.71,1.89,2.12
				C357.66,39.44,357.66,39.52,357.62,39.59z M356.66,38.93c0-0.52-0.3-0.93-0.93-0.93c-0.59,0-1.04,0.41-1.08,0.93H356.66z"/>
			<path class="st4" d="M359.18,35.44c0.37,0,0.63,0.26,0.63,0.59c0,0.33-0.26,0.59-0.63,0.59s-0.63-0.26-0.63-0.59
				C358.55,35.73,358.81,35.44,359.18,35.44z M358.7,37.37h0.97v3.9h-0.97V37.37z"/>
			<path class="st4" d="M360.93,37.37h0.93V38l0,0c0.19-0.37,0.63-0.74,1.23-0.74c1,0,1.45,0.78,1.45,1.56v2.45h-0.97v-2.15
				c0-0.45-0.11-1.04-0.74-1.04c-0.63,0-0.89,0.52-0.89,1.04v2.15h-0.97v-3.9L360.93,37.37L360.93,37.37z"/>
		</g>
		<g>
			<path class="st4" d="M292.99,70.44h-0.59v-5.75h3.45v0.52h-2.9v2h2.67v0.52h-2.67v2.71L292.99,70.44L292.99,70.44z"/>
			<path class="st4" d="M298.67,70.55c-1.19,0-2-0.85-2-2c0-1.15,0.85-2,2-2c1.19,0,2.04,0.85,2.04,2
				C300.68,69.7,299.86,70.55,298.67,70.55z M298.67,67.03c-0.89,0-1.45,0.67-1.45,1.52c0,0.85,0.56,1.52,1.45,1.52
				s1.45-0.67,1.45-1.52C300.12,67.69,299.57,67.03,298.67,67.03z"/>
			<path class="st4" d="M301.9,66.66h0.52c0,0.19,0.04,0.48,0.04,0.63l0,0c0.22-0.44,0.67-0.74,1.23-0.74c0.15,0,0.26,0,0.37,0.04
				l-0.07,0.52c-0.07-0.04-0.26-0.04-0.37-0.04c-0.59,0-1.11,0.41-1.11,1.45v1.93h-0.56v-2.97
				C301.94,67.29,301.94,66.91,301.9,66.66z"/>
			<path class="st4" d="M307.06,67.55c-0.15-0.33-0.52-0.52-0.93-0.52c-0.41,0-0.82,0.19-0.82,0.59c0,0.37,0.3,0.52,0.89,0.63
				c0.89,0.18,1.3,0.52,1.3,1.11c0,0.85-0.74,1.19-1.41,1.19c-0.59,0-1.15-0.22-1.49-0.74l0.45-0.33c0.19,0.33,0.59,0.59,1.04,0.59
				c0.48,0,0.89-0.19,0.89-0.67c0-0.41-0.41-0.56-1.11-0.74c-0.45-0.11-1.08-0.3-1.08-1.04c0-0.78,0.67-1.11,1.34-1.11
				c0.52,0,1.08,0.26,1.34,0.67L307.06,67.55z"/>
			<path class="st4" d="M311.48,67.51c-0.19-0.3-0.56-0.52-0.97-0.52c-0.89,0-1.45,0.67-1.45,1.52c0,0.85,0.56,1.52,1.45,1.52
				c0.48,0,0.82-0.19,1.04-0.48l0.41,0.3c-0.33,0.41-0.78,0.67-1.45,0.67c-1.22,0-2.04-0.85-2.04-2c0-1.15,0.82-2,2.04-2
				c0.52,0,1.08,0.22,1.41,0.67L311.48,67.51z"/>
			<path class="st4" d="M313.52,67.25c0.19-0.45,0.74-0.71,1.26-0.71c0.97,0,1.45,0.63,1.45,1.56v2.34h-0.56v-2.12
				c0-0.78-0.22-1.34-1.04-1.34c-0.59,0-1.15,0.48-1.15,1.49v1.93h-0.56v-6.13h0.56L313.52,67.25L313.52,67.25z"/>
			<path class="st4" d="M320.43,70.44c0-0.19-0.04-0.48-0.04-0.63l0,0c-0.22,0.44-0.78,0.74-1.3,0.74c-0.97,0-1.45-0.63-1.45-1.56
				v-2.34h0.56v2.12c0,0.78,0.22,1.34,1.04,1.34c0.59,0,1.15-0.48,1.15-1.49v-1.93h0.56v2.97c0,0.19,0,0.59,0.04,0.85h-0.56V70.44
				L320.43,70.44z"/>
			<path class="st4" d="M322.91,66.66c0,0.19,0.04,0.48,0.04,0.63l0,0c0.22-0.44,0.78-0.74,1.3-0.74c0.97,0,1.45,0.63,1.45,1.56
				v2.34h-0.52v-2.12c0-0.78-0.22-1.34-1.04-1.34c-0.59,0-1.15,0.48-1.15,1.49v1.93h-0.56v-2.97c0-0.19,0-0.59-0.04-0.85h0.52
				L322.91,66.66L322.91,66.66z"/>
			<path class="st4" d="M327.41,71.18c0.3,0.37,0.89,0.71,1.45,0.71c1.08,0,1.49-0.67,1.49-1.49V69.7l0,0
				c-0.3,0.48-0.89,0.74-1.45,0.74c-1.19,0-1.97-0.82-1.97-1.93c0-1.08,0.78-1.97,1.97-1.97c0.56,0,1.15,0.26,1.45,0.74l0,0v-0.67
				h0.56v3.75c0,0.82-0.37,1.97-2.04,1.97c-0.71,0-1.37-0.3-1.82-0.78L327.41,71.18z M328.93,69.96c0.85,0,1.45-0.59,1.45-1.49
				c0-0.78-0.59-1.49-1.45-1.49c-0.93,0-1.45,0.71-1.45,1.49C327.48,69.25,328.04,69.96,328.93,69.96z"/>
			<path class="st4" d="M337.13,70.44c0-0.19-0.04-0.48-0.04-0.63l0,0c-0.22,0.44-0.78,0.74-1.3,0.74c-0.97,0-1.45-0.63-1.45-1.56
				v-2.34h0.56v2.12c0,0.78,0.22,1.34,1.04,1.34c0.59,0,1.15-0.48,1.15-1.49v-1.93h0.56v2.97c0,0.19,0,0.59,0.04,0.85h-0.56V70.44z"
				/>
			<path class="st4" d="M339.62,66.66c0,0.19,0.04,0.48,0.04,0.63l0,0c0.22-0.44,0.78-0.74,1.3-0.74c0.97,0,1.45,0.63,1.45,1.56
				v2.34h-0.56v-2.12c0-0.78-0.22-1.34-1.04-1.34c-0.59,0-1.15,0.48-1.15,1.49v1.93h-0.56v-2.97c0-0.19,0-0.59-0.04-0.85h0.56V66.66
				L339.62,66.66z"/>
			<path class="st4" d="M345.6,70.55c-1.19,0-1.97-0.89-1.97-2c0-1.11,0.78-2,1.97-2c0.56,0,1.11,0.26,1.45,0.74l0,0v-3.01h0.56
				v6.13h-0.56v-0.63l0,0C346.71,70.29,346.12,70.55,345.6,70.55z M345.63,70.07c0.85,0,1.45-0.67,1.45-1.52
				c0-0.85-0.59-1.52-1.45-1.52c-0.93,0-1.45,0.7-1.45,1.52C344.22,69.4,344.71,70.07,345.63,70.07z"/>
			<path class="st4" d="M351.72,67.29L351.72,67.29l2.75-2.56h0.85l-2.9,2.6l3.04,3.16h-0.85l-2.86-3.04l0,0v3.04h-0.59v-5.75h0.59
				v2.56L351.72,67.29L351.72,67.29z"/>
			<path class="st4" d="M358.89,70.44c0-0.19-0.04-0.48-0.04-0.63l0,0c-0.22,0.44-0.78,0.74-1.3,0.74c-0.97,0-1.45-0.63-1.45-1.56
				v-2.34h0.56v2.12c0,0.78,0.22,1.34,1.04,1.34c0.59,0,1.15-0.48,1.15-1.49v-1.93h0.56v2.97c0,0.19,0,0.59,0.04,0.85h-0.56V70.44z"
				/>
			<path class="st4" d="M361.45,70.44h-0.56v-6.12h0.56V70.44z"/>
			<path class="st4" d="M364.79,67.1h-1.08v2.23c0,0.56,0.22,0.71,0.56,0.71c0.15,0,0.33-0.04,0.48-0.11l0.04,0.48
				c-0.19,0.07-0.41,0.11-0.63,0.11c-0.41,0-0.96-0.19-0.96-1v-2.38h-0.78v-0.45h0.78v-1.08h0.56v1.08h1.08v0.41H364.79z"/>
			<path class="st4" d="M368.54,70.44c0-0.19-0.04-0.48-0.04-0.63l0,0c-0.22,0.44-0.78,0.74-1.3,0.74c-0.97,0-1.45-0.63-1.45-1.56
				v-2.34h0.56v2.12c0,0.78,0.22,1.34,1.04,1.34c0.59,0,1.15-0.48,1.15-1.49v-1.93h0.56v2.97c0,0.19,0,0.59,0.04,0.85h-0.56V70.44
				L368.54,70.44z"/>
			<path class="st4" d="M370.47,66.66h0.52c0,0.19,0.04,0.48,0.04,0.63l0,0c0.22-0.44,0.67-0.74,1.22-0.74c0.15,0,0.26,0,0.37,0.04
				l-0.07,0.52c-0.07-0.04-0.26-0.04-0.37-0.04c-0.59,0-1.11,0.41-1.11,1.45v1.93h-0.56v-2.97C370.5,67.29,370.5,66.91,370.47,66.66
				z"/>
		</g>
		<g>
			<path class="st4" d="M292.4,54.96h1.71c0.89,0,1.86,0.33,1.86,1.49c0,0.59-0.41,1.11-1,1.22l0,0c0.74,0.07,1.3,0.59,1.3,1.45
				c0,0.97-0.82,1.6-2.15,1.6h-1.71V54.96z M292.99,57.49h1.19c0.56,0,1.22-0.26,1.22-1s-0.63-1-1.37-1h-1v2H292.99z M292.99,60.2
				h1.08c0.85,0,1.6-0.33,1.6-1.11c0-0.74-0.56-1.11-1.49-1.11h-1.19C292.99,57.97,292.99,60.2,292.99,60.2z"/>
			<path class="st4" d="M301.01,58.97h-3.16c0,0.78,0.59,1.37,1.37,1.37c0.56,0,1-0.33,1.22-0.67l0.41,0.33
				c-0.45,0.56-1,0.82-1.63,0.82c-1.11,0-1.97-0.85-1.97-2c0-1.15,0.85-2,1.93-2c1.19,0,1.82,0.85,1.82,1.89
				C301.05,58.79,301.05,58.86,301.01,58.97z M300.49,58.53c-0.04-0.71-0.48-1.23-1.26-1.23c-0.74,0-1.3,0.59-1.34,1.23H300.49z"/>
			<path class="st4" d="M302.24,56.93h0.52c0,0.19,0.04,0.48,0.04,0.63l0,0c0.22-0.45,0.67-0.74,1.22-0.74c0.15,0,0.26,0,0.37,0.04
				l-0.07,0.52c-0.07-0.04-0.26-0.04-0.37-0.04c-0.59,0-1.11,0.41-1.11,1.45v1.93h-0.56v-2.97
				C302.27,57.56,302.27,57.19,302.24,56.93z"/>
			<path class="st4" d="M308.1,60.72c0-0.19-0.04-0.48-0.04-0.63l0,0c-0.22,0.45-0.78,0.74-1.3,0.74c-0.97,0-1.45-0.63-1.45-1.56
				v-2.34h0.56v2.12c0,0.78,0.22,1.34,1.04,1.34c0.59,0,1.15-0.48,1.15-1.49v-1.93h0.56v2.97c0,0.19,0,0.59,0.04,0.85h-0.56V60.72z"
				/>
			<path class="st4" d="M311.82,57.38h-0.89v3.34h-0.56v-3.34h-0.78v-0.45h0.78v-1.04c0-0.85,0.41-1.41,1.3-1.41
				c0.15,0,0.33,0,0.45,0.07L312,55.04c-0.11-0.04-0.22-0.07-0.37-0.07c-0.59,0-0.71,0.41-0.71,0.97v0.97h0.89L311.82,57.38
				L311.82,57.38z M313.15,60.72h-0.56v-6.13h0.56V60.72z"/>
			<path class="st4" d="M314.93,55.85c-0.19,0-0.37-0.15-0.37-0.37c0-0.22,0.19-0.37,0.37-0.37c0.19,0,0.37,0.15,0.37,0.37
				C315.3,55.67,315.12,55.85,314.93,55.85z M315.19,60.72h-0.56v-3.79h0.56V60.72z"/>
			<path class="st4" d="M319.43,57.78c-0.18-0.3-0.56-0.52-0.97-0.52c-0.89,0-1.45,0.67-1.45,1.52c0,0.85,0.56,1.52,1.45,1.52
				c0.48,0,0.82-0.19,1.04-0.48l0.41,0.3c-0.33,0.41-0.78,0.67-1.45,0.67c-1.22,0-2.04-0.85-2.04-2c0-1.15,0.82-2,2.04-2
				c0.52,0,1.08,0.22,1.41,0.67L319.43,57.78z"/>
			<path class="st4" d="M321.47,57.52c0.19-0.45,0.74-0.71,1.26-0.71c0.97,0,1.45,0.63,1.45,1.56v2.34h-0.56V58.6
				c0-0.78-0.22-1.34-1.04-1.34c-0.59,0-1.15,0.48-1.15,1.49v1.93h-0.56v-6.13h0.56L321.47,57.52L321.47,57.52z"/>
			<path class="st4" d="M329.11,58.97h-3.16c0,0.78,0.59,1.37,1.37,1.37c0.56,0,1-0.33,1.23-0.67l0.41,0.33
				c-0.45,0.56-1,0.82-1.63,0.82c-1.11,0-1.97-0.85-1.97-2c0-1.15,0.85-2,1.93-2c1.19,0,1.82,0.85,1.82,1.89
				C329.11,58.79,329.11,58.86,329.11,58.97z M328.56,58.53c-0.04-0.71-0.48-1.23-1.26-1.23c-0.74,0-1.3,0.59-1.34,1.23H328.56z"/>
			<path class="st4" d="M332.38,54.96h1.71c0.89,0,1.86,0.33,1.86,1.49c0,0.59-0.41,1.11-1,1.22l0,0c0.74,0.07,1.3,0.59,1.3,1.45
				c0,0.97-0.82,1.6-2.15,1.6h-1.71L332.38,54.96L332.38,54.96z M332.97,57.49h1.19c0.56,0,1.23-0.26,1.23-1s-0.63-1-1.37-1h-1.04
				V57.49z M332.97,60.2h1.08c0.85,0,1.6-0.33,1.6-1.11c0-0.74-0.56-1.11-1.49-1.11h-1.19V60.2z"/>
			<path class="st4" d="M337.8,55.85c-0.19,0-0.37-0.15-0.37-0.37c0-0.22,0.18-0.37,0.37-0.37c0.19,0,0.37,0.15,0.37,0.37
				C338.21,55.67,338.02,55.85,337.8,55.85z M338.1,60.72h-0.56v-3.79h0.56V60.72z"/>
			<path class="st4" d="M340.14,60.72h-0.56v-6.13h0.56V60.72z"/>
			<path class="st4" d="M343.37,60.79c-1.19,0-1.97-0.89-1.97-2c0-1.11,0.78-2,1.97-2c0.56,0,1.11,0.26,1.45,0.74l0,0v-3.01h0.56
				v6.13h-0.56v-0.63l0,0C344.48,60.53,343.89,60.79,343.37,60.79z M343.41,60.34c0.85,0,1.45-0.67,1.45-1.52
				c0-0.85-0.59-1.52-1.45-1.52c-0.93,0-1.45,0.71-1.45,1.52C342,59.64,342.52,60.34,343.41,60.34z"/>
			<path class="st4" d="M349.64,60.72c0-0.19-0.04-0.48-0.04-0.63l0,0c-0.22,0.45-0.78,0.74-1.3,0.74c-0.96,0-1.45-0.63-1.45-1.56
				v-2.34h0.56v2.12c0,0.78,0.22,1.34,1.04,1.34c0.59,0,1.15-0.48,1.15-1.49v-1.93h0.56v2.97c0,0.19,0,0.59,0.04,0.85h-0.56V60.72
				L349.64,60.72z"/>
			<path class="st4" d="M352.13,56.93c0,0.19,0.04,0.48,0.04,0.63l0,0c0.22-0.45,0.78-0.74,1.3-0.74c0.97,0,1.45,0.63,1.45,1.56
				v2.34h-0.56V58.6c0-0.78-0.22-1.34-1.04-1.34c-0.59,0-1.15,0.48-1.15,1.49v1.93h-0.56v-2.97c0-0.19,0-0.59-0.04-0.85h0.56V56.93z
				"/>
			<path class="st4" d="M356.58,61.46c0.3,0.37,0.89,0.7,1.45,0.7c1.08,0,1.49-0.67,1.49-1.49v-0.71l0,0
				c-0.3,0.48-0.89,0.74-1.45,0.74c-1.19,0-1.97-0.82-1.97-1.93c0-1.08,0.78-1.97,1.97-1.97c0.56,0,1.15,0.26,1.45,0.74l0,0v-0.67
				h0.56v3.75c0,0.82-0.37,1.97-2.04,1.97c-0.7,0-1.37-0.3-1.82-0.78L356.58,61.46z M358.14,60.23c0.85,0,1.45-0.59,1.45-1.49
				c0-0.78-0.59-1.49-1.45-1.49c-0.93,0-1.45,0.71-1.45,1.49C356.7,59.53,357.22,60.23,358.14,60.23z"/>
			<path class="st4" d="M361.63,61.83h-0.45l0.56-1.89h0.59L361.63,61.83z"/>
			<path class="st4" d="M367.09,59.9L367.09,59.9l1.45-4.94h0.71l1.45,4.94l0,0l1.41-4.94h0.63l-1.71,5.75h-0.67l-1.45-4.94l0,0
				l-1.45,4.94h-0.71l-1.71-5.75h0.63L367.09,59.9z"/>
			<path class="st4" d="M373.99,55.85c-0.19,0-0.37-0.15-0.37-0.37c0-0.22,0.19-0.37,0.37-0.37c0.19,0,0.37,0.15,0.37,0.37
				C374.4,55.67,374.18,55.85,373.99,55.85z M374.29,60.72h-0.56v-3.79h0.56V60.72z"/>
			<path class="st4" d="M377.82,57.82c-0.15-0.33-0.52-0.52-0.93-0.52c-0.41,0-0.82,0.19-0.82,0.59c0,0.37,0.3,0.52,0.89,0.63
				c0.89,0.19,1.3,0.52,1.3,1.11c0,0.85-0.74,1.19-1.41,1.19c-0.59,0-1.15-0.22-1.49-0.74l0.45-0.33c0.19,0.33,0.59,0.59,1.04,0.59
				c0.48,0,0.89-0.19,0.89-0.67c0-0.41-0.41-0.56-1.11-0.74c-0.45-0.11-1.08-0.3-1.08-1.04c0-0.78,0.67-1.11,1.34-1.11
				c0.52,0,1.08,0.26,1.34,0.67L377.82,57.82z"/>
			<path class="st4" d="M381.6,57.82c-0.15-0.33-0.52-0.52-0.93-0.52c-0.41,0-0.82,0.19-0.82,0.59c0,0.37,0.3,0.52,0.89,0.63
				c0.89,0.19,1.3,0.52,1.3,1.11c0,0.85-0.74,1.19-1.41,1.19c-0.59,0-1.15-0.22-1.49-0.74l0.45-0.33c0.19,0.33,0.59,0.59,1.04,0.59
				c0.48,0,0.89-0.19,0.89-0.67c0-0.41-0.41-0.56-1.11-0.74c-0.44-0.11-1.08-0.3-1.08-1.04c0-0.78,0.67-1.11,1.34-1.11
				c0.52,0,1.08,0.26,1.34,0.67L381.6,57.82z"/>
			<path class="st4" d="M386.76,58.97h-3.16c0,0.78,0.59,1.37,1.37,1.37c0.56,0,1-0.33,1.22-0.67l0.41,0.33
				c-0.45,0.56-1,0.82-1.63,0.82c-1.11,0-1.97-0.85-1.97-2c0-1.15,0.85-2,1.93-2c1.19,0,1.82,0.85,1.82,1.89
				C386.76,58.79,386.76,58.86,386.76,58.97z M386.21,58.53c-0.04-0.71-0.48-1.23-1.26-1.23c-0.74,0-1.3,0.59-1.34,1.23H386.21z"/>
			<path class="st4" d="M388.51,56.93c0,0.19,0.04,0.48,0.04,0.63l0,0c0.22-0.45,0.78-0.74,1.3-0.74c0.96,0,1.45,0.63,1.45,1.56
				v2.34h-0.56V58.6c0-0.78-0.22-1.34-1.04-1.34c-0.59,0-1.15,0.48-1.15,1.49v1.93h-0.56v-2.97c0-0.19,0-0.59-0.04-0.85h0.56V56.93z
				"/>
			<path class="st4" d="M394.78,57.82c-0.15-0.33-0.52-0.52-0.93-0.52c-0.41,0-0.82,0.19-0.82,0.59c0,0.37,0.3,0.52,0.89,0.63
				c0.89,0.19,1.3,0.52,1.3,1.11c0,0.85-0.74,1.19-1.41,1.19c-0.59,0-1.15-0.22-1.49-0.74l0.45-0.33c0.19,0.33,0.59,0.59,1.04,0.59
				c0.48,0,0.89-0.19,0.89-0.67c0-0.41-0.41-0.56-1.11-0.74c-0.45-0.11-1.08-0.3-1.08-1.04c0-0.78,0.67-1.11,1.34-1.11
				c0.52,0,1.08,0.26,1.34,0.67L394.78,57.82z"/>
			<path class="st4" d="M399.2,57.78c-0.19-0.3-0.56-0.52-0.97-0.52c-0.89,0-1.45,0.67-1.45,1.52c0,0.85,0.56,1.52,1.45,1.52
				c0.48,0,0.82-0.19,1.04-0.48l0.41,0.3c-0.33,0.41-0.78,0.67-1.45,0.67c-1.22,0-2.04-0.85-2.04-2c0-1.15,0.82-2,2.04-2
				c0.52,0,1.08,0.22,1.41,0.67L399.2,57.78z"/>
			<path class="st4" d="M401.24,57.52c0.19-0.45,0.74-0.71,1.26-0.71c0.97,0,1.45,0.63,1.45,1.56v2.34h-0.56V58.6
				c0-0.78-0.22-1.34-1.04-1.34c-0.59,0-1.15,0.48-1.15,1.49v1.93h-0.56v-6.13h0.56L401.24,57.52L401.24,57.52z"/>
			<path class="st4" d="M407.81,58.26c0-0.67-0.37-0.97-1-0.97c-0.45,0-0.85,0.19-1.11,0.45l-0.3-0.37c0.3-0.3,0.85-0.56,1.48-0.56
				c0.82,0,1.49,0.45,1.49,1.37v1.67c0,0.3,0.04,0.63,0.07,0.85h-0.48c-0.04-0.19-0.07-0.41-0.07-0.63l0,0
				c-0.34,0.52-0.78,0.71-1.37,0.71c-0.59,0-1.3-0.3-1.3-1.15c0-1.15,1.3-1.26,2.67-1.26v-0.11L407.81,58.26L407.81,58.26z
				 M407.63,58.82c-0.89,0-1.93,0.11-1.93,0.82c0,0.56,0.44,0.71,0.89,0.71c0.78,0,1.22-0.59,1.22-1.26v-0.3h-0.19V58.82
				L407.63,58.82z"/>
			<path class="st4" d="M411.41,57.38h-0.89v3.34h-0.56v-3.34h-0.78v-0.45h0.78v-1.04c0-0.85,0.41-1.41,1.3-1.41
				c0.15,0,0.33,0,0.45,0.07l-0.11,0.48c-0.11-0.04-0.22-0.07-0.37-0.07c-0.59,0-0.71,0.41-0.71,0.97v0.97h0.89L411.41,57.38
				L411.41,57.38z"/>
			<path class="st4" d="M414.42,57.38h-1.08v2.23c0,0.56,0.22,0.71,0.56,0.71c0.15,0,0.33-0.04,0.48-0.11l0.04,0.48
				c-0.19,0.07-0.41,0.11-0.63,0.11c-0.41,0-0.97-0.19-0.97-1v-2.38h-0.78v-0.45h0.78v-1.08h0.56v1.08h1.08v0.41L414.42,57.38
				L414.42,57.38z"/>
			<path class="st4" d="M415.53,61.83h-0.45l0.56-1.89h0.59L415.53,61.83z"/>
		</g>
		<g>
			<path class="st4" d="M295.22,49.99L295.22,49.99l1.93-4.75h0.89v5.75h-0.59v-4.97l0,0l-2.08,4.97h-0.3l-2.08-4.97l0,0v4.97h-0.59
				v-5.75h0.89L295.22,49.99z"/>
			<path class="st4" d="M299.9,46.13c-0.19,0-0.37-0.15-0.37-0.37s0.19-0.37,0.37-0.37c0.19,0,0.37,0.15,0.37,0.37
				S300.12,46.13,299.9,46.13z M300.2,50.99h-0.56V47.2h0.56V50.99z"/>
			<path class="st4" d="M302.16,47.17c0,0.19,0.04,0.48,0.04,0.63l0,0c0.22-0.44,0.78-0.74,1.3-0.74c0.97,0,1.45,0.63,1.45,1.56
				v2.34h-0.56v-2.12c0-0.78-0.22-1.34-1.04-1.34c-0.59,0-1.15,0.48-1.15,1.49v1.93h-0.56v-2.97c0-0.19,0-0.59-0.04-0.85h0.56
				L302.16,47.17L302.16,47.17z"/>
			<path class="st4" d="M306.69,46.13c-0.19,0-0.37-0.15-0.37-0.37s0.19-0.37,0.37-0.37s0.37,0.15,0.37,0.37
				S306.88,46.13,306.69,46.13z M306.99,50.99h-0.56V47.2h0.56V50.99z"/>
			<path class="st4" d="M310.52,48.1c-0.15-0.33-0.52-0.52-0.93-0.52c-0.41,0-0.82,0.19-0.82,0.59c0,0.37,0.3,0.52,0.89,0.63
				c0.89,0.19,1.3,0.52,1.3,1.11c0,0.85-0.74,1.19-1.41,1.19c-0.59,0-1.15-0.22-1.49-0.74l0.45-0.33c0.19,0.33,0.59,0.59,1.04,0.59
				c0.48,0,0.89-0.19,0.89-0.67c0-0.41-0.41-0.56-1.11-0.74c-0.45-0.11-1.08-0.3-1.08-1.04c0-0.78,0.67-1.11,1.34-1.11
				c0.52,0,1.08,0.26,1.34,0.67L310.52,48.1z"/>
			<path class="st4" d="M314.12,47.65h-1.08v2.23c0,0.56,0.22,0.71,0.56,0.71c0.15,0,0.33-0.04,0.48-0.11l0.04,0.48
				c-0.19,0.07-0.41,0.11-0.63,0.11c-0.41,0-0.96-0.18-0.96-1v-2.38h-0.78v-0.44h0.78v-1.08h0.56v1.08h1.08v0.41H314.12z"/>
			<path class="st4" d="M318.46,49.21h-3.16c0,0.78,0.59,1.37,1.37,1.37c0.56,0,1-0.33,1.22-0.67l0.41,0.33
				c-0.45,0.56-1,0.82-1.63,0.82c-1.11,0-1.97-0.85-1.97-2c0-1.15,0.85-2,1.93-2c1.19,0,1.82,0.85,1.82,1.89
				C318.46,49.02,318.46,49.13,318.46,49.21z M317.9,48.8c-0.04-0.7-0.48-1.22-1.26-1.22c-0.74,0-1.3,0.59-1.34,1.22H317.9z"/>
			<path class="st4" d="M319.69,47.17h0.52c0,0.19,0.04,0.48,0.04,0.63l0,0c0.22-0.44,0.67-0.74,1.22-0.74c0.15,0,0.26,0,0.37,0.04
				l-0.07,0.52c-0.07-0.04-0.26-0.04-0.37-0.04c-0.59,0-1.11,0.41-1.11,1.45v1.93h-0.56v-2.97
				C319.72,47.8,319.69,47.43,319.69,47.17z"/>
			<path class="st4" d="M323.06,46.13c-0.19,0-0.37-0.15-0.37-0.37s0.19-0.37,0.37-0.37c0.19,0,0.37,0.15,0.37,0.37
				S323.25,46.13,323.06,46.13z M323.32,50.99h-0.56V47.2h0.56V50.99z"/>
			<path class="st4" d="M327.56,50.99c0-0.19-0.04-0.48-0.04-0.63l0,0c-0.22,0.45-0.78,0.74-1.3,0.74c-0.97,0-1.45-0.63-1.45-1.56
				V47.2h0.56v2.12c0,0.78,0.22,1.34,1.04,1.34c0.59,0,1.15-0.48,1.15-1.48v-1.93h0.56v2.97c0,0.18,0,0.59,0.04,0.85h-0.56V50.99z"
				/>
			<path class="st4" d="M331.34,47.09c0.41,0,0.93,0.15,1.15,0.82c0.26-0.52,0.71-0.82,1.34-0.82c0.97,0,1.45,0.63,1.45,1.56v2.34
				h-0.56v-2.12c0-0.78-0.26-1.34-0.97-1.34c-0.78,0-1.08,0.7-1.08,1.41v2h-0.56v-2.23c0-0.74-0.19-1.23-0.93-1.23
				c-0.52,0-1.11,0.48-1.11,1.49v1.93h-0.56v-2.97c0-0.19,0-0.59-0.04-0.85H330c0,0.19,0.04,0.48,0.04,0.63l0,0
				C330.34,47.39,330.82,47.09,331.34,47.09z"/>
			<path class="st4" d="M340.36,47.65h-0.89v3.34h-0.56v-3.34h-0.78V47.2h0.78v-1.04c0-0.85,0.41-1.41,1.3-1.41
				c0.15,0,0.33,0,0.45,0.07l-0.11,0.48c-0.11-0.04-0.22-0.07-0.37-0.07c-0.59,0-0.71,0.41-0.71,0.97v0.97h0.89L340.36,47.65
				L340.36,47.65z"/>
			<path class="st4" d="M344.07,50.99c0-0.19-0.04-0.48-0.04-0.63l0,0c-0.22,0.45-0.78,0.74-1.3,0.74c-0.96,0-1.45-0.63-1.45-1.56
				V47.2h0.56v2.12c0,0.78,0.22,1.34,1.04,1.34c0.59,0,1.15-0.48,1.15-1.48v-1.93h0.56v2.97c0,0.18,0,0.59,0.04,0.85h-0.56V50.99
				L344.07,50.99z M342.14,45.31c0.26,0,0.41,0.18,0.41,0.41c0,0.22-0.19,0.41-0.41,0.41c-0.26,0-0.41-0.19-0.41-0.41
				C341.74,45.53,341.92,45.31,342.14,45.31z M343.7,45.31c0.26,0,0.41,0.18,0.41,0.41c0,0.22-0.19,0.41-0.41,0.41
				c-0.26,0-0.41-0.19-0.41-0.41C343.29,45.53,343.48,45.31,343.7,45.31z"/>
			<path class="st4" d="M346.04,47.17h0.52c0,0.19,0.04,0.48,0.04,0.63l0,0c0.22-0.44,0.67-0.74,1.22-0.74c0.15,0,0.26,0,0.37,0.04
				l-0.07,0.52c-0.07-0.04-0.26-0.04-0.37-0.04c-0.59,0-1.11,0.41-1.11,1.45v1.93h-0.56v-2.97
				C346.08,47.8,346.08,47.43,346.04,47.17z"/>
			<path class="st4" d="M351.02,50.99h-0.63l2.49-5.75h0.56l2.45,5.75h-0.63l-0.63-1.52h-2.97L351.02,50.99z M351.87,48.95h2.52
				l-1.26-3.04L351.87,48.95z"/>
			<path class="st4" d="M357.4,50.99h-0.56v-6.13h0.56V50.99z"/>
			<path class="st4" d="M359.48,50.99h-0.56v-6.13h0.56V50.99z"/>
			<path class="st4" d="M361.19,51.73c0.3,0.37,0.89,0.71,1.45,0.71c1.08,0,1.49-0.67,1.49-1.49v-0.71l0,0
				c-0.3,0.48-0.89,0.74-1.45,0.74c-1.19,0-1.97-0.82-1.97-1.93c0-1.08,0.78-1.97,1.97-1.97c0.56,0,1.15,0.26,1.45,0.74l0,0v-0.67
				h0.56v3.75c0,0.82-0.37,1.97-2.04,1.97c-0.71,0-1.37-0.3-1.82-0.78L361.19,51.73z M362.75,50.51c0.85,0,1.45-0.6,1.45-1.49
				c0-0.78-0.59-1.49-1.45-1.49c-0.93,0-1.45,0.7-1.45,1.49C361.3,49.8,361.82,50.51,362.75,50.51z"/>
			<path class="st4" d="M369.65,49.21h-3.15c0,0.78,0.59,1.37,1.37,1.37c0.56,0,1-0.33,1.22-0.67l0.41,0.33
				c-0.44,0.56-1,0.82-1.63,0.82c-1.11,0-1.97-0.85-1.97-2c0-1.15,0.85-2,1.93-2c1.19,0,1.82,0.85,1.82,1.89
				C369.65,49.02,369.65,49.13,369.65,49.21z M369.09,48.8c-0.04-0.7-0.48-1.22-1.26-1.22c-0.74,0-1.3,0.59-1.34,1.22H369.09z"/>
			<path class="st4" d="M372.69,47.09c0.41,0,0.93,0.15,1.15,0.82c0.26-0.52,0.71-0.82,1.34-0.82c0.97,0,1.45,0.63,1.45,1.56v2.34
				h-0.56v-2.12c0-0.78-0.26-1.34-0.97-1.34c-0.78,0-1.08,0.7-1.08,1.41v2h-0.56v-2.23c0-0.74-0.19-1.23-0.93-1.23
				c-0.52,0-1.11,0.48-1.11,1.49v1.93h-0.56v-2.97c0-0.19,0-0.59-0.04-0.85h0.52c0,0.19,0.04,0.48,0.04,0.63l0,0
				C371.66,47.39,372.14,47.09,372.69,47.09z"/>
			<path class="st4" d="M381.57,49.21h-3.16c0,0.78,0.59,1.37,1.37,1.37c0.56,0,1-0.33,1.23-0.67l0.41,0.33
				c-0.45,0.56-1,0.82-1.63,0.82c-1.11,0-1.97-0.85-1.97-2c0-1.15,0.85-2,1.93-2c1.19,0,1.82,0.85,1.82,1.89
				C381.6,49.02,381.6,49.13,381.57,49.21z M381.05,48.8c-0.04-0.7-0.48-1.22-1.26-1.22c-0.74,0-1.3,0.59-1.34,1.22H381.05z"/>
			<path class="st4" d="M383.09,46.13c-0.19,0-0.37-0.15-0.37-0.37s0.19-0.37,0.37-0.37c0.19,0,0.37,0.15,0.37,0.37
				S383.31,46.13,383.09,46.13z M383.39,50.99h-0.56V47.2h0.56V50.99z"/>
			<path class="st4" d="M385.35,47.17c0,0.19,0.04,0.48,0.04,0.63l0,0c0.22-0.44,0.78-0.74,1.3-0.74c0.97,0,1.45,0.63,1.45,1.56
				v2.34h-0.56v-2.12c0-0.78-0.22-1.34-1.04-1.34c-0.59,0-1.15,0.48-1.15,1.49v1.93h-0.56v-2.97c0-0.19,0-0.59-0.04-0.85h0.56V47.17
				L385.35,47.17z"/>
			<path class="st4" d="M393.11,49.21h-3.15c0,0.78,0.59,1.37,1.37,1.37c0.56,0,1-0.33,1.22-0.67l0.41,0.33
				c-0.45,0.56-1,0.82-1.63,0.82c-1.11,0-1.97-0.85-1.97-2c0-1.15,0.85-2,1.93-2c1.19,0,1.82,0.85,1.82,1.89
				C393.11,49.02,393.11,49.13,393.11,49.21z M392.55,48.8c-0.04-0.7-0.48-1.22-1.26-1.22c-0.74,0-1.3,0.59-1.34,1.22H392.55z"/>
			<path class="st4" d="M399.09,50.99c0-0.19-0.04-0.48-0.04-0.63l0,0c-0.22,0.45-0.78,0.74-1.3,0.74c-0.97,0-1.45-0.63-1.45-1.56
				V47.2h0.56v2.12c0,0.78,0.22,1.34,1.04,1.34c0.59,0,1.15-0.48,1.15-1.48v-1.93h0.56v2.97c0,0.18,0,0.59,0.04,0.85h-0.56V50.99z"
				/>
			<path class="st4" d="M401.58,47.17c0,0.19,0.04,0.48,0.04,0.63l0,0c0.22-0.44,0.78-0.74,1.3-0.74c0.96,0,1.45,0.63,1.45,1.56
				v2.34h-0.56v-2.12c0-0.78-0.22-1.34-1.04-1.34c-0.59,0-1.15,0.48-1.15,1.49v1.93h-0.56v-2.97c0-0.19,0-0.59-0.04-0.85h0.56V47.17
				z"/>
			<path class="st4" d="M407.55,51.06c-1.19,0-1.97-0.89-1.97-2c0-1.11,0.78-2,1.97-2c0.56,0,1.11,0.26,1.45,0.74l0,0v-3.01h0.56
				v6.13H409v-0.63l0,0C408.67,50.8,408.07,51.06,407.55,51.06z M407.59,50.62c0.85,0,1.45-0.67,1.45-1.52
				c0-0.85-0.59-1.52-1.45-1.52c-0.93,0-1.45,0.71-1.45,1.52C406.18,49.91,406.7,50.62,407.59,50.62z"/>
		</g>
	</g>
	<g id="Symbole">
		<polygon class="st5" points="344.15,2.84 340.29,2.84 338.25,6.63 337.43,2.84 335.98,6.63 334.53,2.84 333.72,6.63 331.67,2.84 
			327.81,2.84 327.81,6 332.49,7.93 327.85,9.93 332.6,11.6 328.15,13.91 332.97,15.09 328.85,17.8 333.61,18.32 330.12,21.55 
			334.72,21.55 332.34,24.86 335.98,27.71 339.66,24.86 337.24,21.55 341.85,21.55 338.39,18.32 343.15,17.8 338.99,15.09 
			343.81,13.91 339.36,11.6 344.11,9.93 339.47,7.93 344.15,6 		"/>
		<g>
			<path class="st4" d="M310.11,24.71l-1.97-0.48l1.49-0.33l-0.07-0.37l1.04-0.04c0,0-0.67-0.89-1.52-0.82l-1.89,0.97
				c-0.26-0.11-2.38-2.19-2.38-2.19s1.71-1.63,0.74-2.82c-0.22-0.3-2.34-1.41-2.56-1.41c-0.22,0-2.08,1.6-2.08,1.6
				c0.71,0.56,1.34,1.37,1.26,2.12c-0.07,0.52-0.78,1.04-0.78,1.04c-0.11,0.33,4.27,2.71,4.27,2.71l-0.48,0.44
				c-0.45,0.48-0.18,1-0.18,1l0.63-0.48l0.15,0.22l0.74-0.59l0.3,1.41l0.45-0.04l0.15,1.08c0.82-0.26,0.85-1.49,0.85-1.49
				l-0.56-1.37l1.82,1.41l0.22-0.52l0.93,0.3C310.74,26.04,310.55,25.19,310.11,24.71z"/>
			<path class="st4" d="M322.88,8l-1.37,0.19l1.11-1.34l-0.45-0.48l0.63-0.89c0,0-1.08-0.11-1.6,0.71l-0.93,2.23V6.7
				c-0.04,0-0.41,0-0.48,0l-0.11-1.08c0,0-0.82,0.37-0.93,1.74l0.82,1.52l-3.71,4.75l0,0c0.56,0.78,0.7,1.41,0.78,1.82l0.04,0.11
				l0.3,1.41l3.67-5.79l1.04,0.67c0.59-0.04,0.89-0.82,0.89-0.82l-0.93-0.33l-0.15-1.34l1.08,0.07l0.19-0.33l1.19,0.19
				C323.88,8.37,323.36,8.11,322.88,8z"/>
			<path class="st4" d="M323.1,24.63l-1.71-0.71l1.15-0.07c0-0.04,0.15-0.52,0.15-0.59l1.3-0.15c0,0-0.93-0.85-1.71-0.78l-1.93,0.74
				l-4.9-3.82c0,0,1.08-0.19,1.71-0.48c0,0-0.52-0.63-0.67-1.45l-0.33-1.56c-0.07-0.37-0.19-0.93-0.71-1.67
				c-0.07-0.15-0.59-0.67-0.59-0.67l-0.71-0.56l0.82-0.11c1.08-0.22,1.11-1.08,1.11-1.08h-3.42c0,0,0-0.22,0-0.63h3.42
				c0.59,0,1.04-0.19,1.41-0.52c0.59-0.59,0.67-1.37,0.67-1.41c0-0.18-0.15-0.33-0.33-0.33c-0.19,0-0.33,0.15-0.33,0.33
				c0,0-0.11,0.52-0.48,0.93c-0.22,0.22-0.52,0.33-0.89,0.33h-3.38c0-0.11,0.04-0.04,0.04-0.11c0.11-0.33,0.52-0.48,0.93-0.48
				c0.74,0,1.56,0,2.56-0.04c0.45,0,0.71-0.74,0.71-0.74s0.22-1.22,0.22-1.37c0-0.19-0.07-0.22-0.3-0.3
				c-0.22-0.07-1.08-0.3-1.52-0.56c-0.45-0.3-1.11-0.56-1.52-0.56h-2.08c-0.33,0-0.85,0.37-0.85,0.37s-0.22-0.78-0.82-0.97
				l-0.85-0.3l0.33,2.04l-0.52,1.86c0,0-1,0.56-1.37,0.63l-0.59-0.04l0.45,0.48c0.19,0.15,0.67,0.15,1.19,0.11l-0.11,0.41
				c-0.04,0.04-0.97,0.56-1.34,0.63l-0.63-0.04l0.48,0.48c0.15,0.15,0.67,0.15,1.15,0.11l-0.26,0.85c0,0-0.07,0.74-0.97,0.74
				c-0.82,0-10.91-1.19-10.91-1.19c-0.7-0.07-2.34-0.33-2.34-1.71c0-1.26,1.26-1.49,2.41-1.49h8.24c2.23,0,3.34-1.15,3.45-3.38
				c0.07-1.89,1.22-2.67,1.93-2.67c0.85,0,3.42,0,3.42,0c0.97-0.45,1.63-2.26,1.63-2.26s-0.74,0.26-1.52,0.48h-3.93
				c-0.85,0-1.78,1.19-2.23,2.56l0,0c-0.41-1.37-1.26-2.56-2.23-2.56h-3.94c-0.78-0.22-1.52-0.48-1.52-0.48s0.67,1.82,1.63,2.26
				c0,0,2.56,0,3.42,0c0.71,0,1.93,0.78,1.93,2.67c0,1.49-0.67,2.12-2.08,2.12h-3.38c0.11-0.41,0.33-1.19,0.56-1.52l0.74-0.59
				c0,0-0.37,0-1,0c-0.56,0-1.56,1.56-1.93,2.12h-1.23c0.15-0.52,0.48-1.82,0.78-2.23l0.93-0.71c0,0-0.48,0-1.3,0
				c-0.71,0-2.04,2.3-2.49,2.97c-1.23,0-3.68,0.44-3.68,2.78c0,1.89,1.74,2.78,3.49,3.01c0.07,0,2.34,0.3,2.34,0.3l-1.89,4.23
				c0,0-0.82-0.11-1-0.04c-0.26,0.11-2.26,4.94-2.26,4.94l-1.34,0.04c-0.22,0.07-0.67,0.56-0.78,0.78c-0.15,0.3-0.15,0.56-0.15,0.56
				l0.74-0.26l0.33,0.3l0.82-0.26l-0.67,1.56l0.45,0.45l-0.15,1.26c0.67-0.07,1.19-1.15,1.19-1.15l0.07-1.6l0.59,1.45
				c0.07,0,0.07,0,0.37,0.04l0.78,1.26c0,0,0.22-0.18,0.3-0.48c0.07-0.22,0.07-1.11,0.07-1.11c-0.26-0.3-1.08-1.26-1.08-1.26
				l1.37,0.97c0-0.04,0.22-0.22,0.26-0.26l1.34,0.52c0,0-0.3-1.22-0.63-1.49l-2.23-0.85l5.27-4.97c1.26-1.08,2.38-1.97,2.93-2.04
				c0.59-0.07,5.05,2.86,5.86,3.01c0.59,0.07,1.6-0.04,1.6-0.04s-0.11,0.7-0.04,0.89c0.26,0.52,7.91,3.45,7.91,3.45l-0.96,0.56
				c-0.33,0.22-0.52,1.19-0.52,1.19l1.22-0.67l0.3,0.41l1-0.78l-0.15,1.34l0.45,0.07l0.04,1.67c0.63-0.26,1-1.56,1-1.56v-1.26
				l1.3,1.15l0.48-0.44l1.11,0.52C323.55,26.16,323.51,25,323.1,24.63z M312.11,8.6C312,8.52,312,8.41,312.04,8.3
				c0.19-0.3,0.71-1.04,1.08-1.11c0.07,0,0.19-0.04,0.26-0.04c0.37,0,0.67,0.15,1,0.3l0.37,0.19c0.11,0.04,0.15,0.19,0.07,0.3
				c-0.04,0.11-0.18,0.15-0.26,0.07l-0.33-0.19c-0.04-0.04-0.07-0.04-0.11-0.04c0.04,0.07,0.04,0.15,0.04,0.22
				c0,0.41-0.33,0.78-0.78,0.78c-0.33,0-0.63-0.22-0.74-0.56c-0.07,0.11-0.19,0.22-0.26,0.33C312.37,8.6,312.22,8.63,312.11,8.6z"/>
			<g>
				<path class="st4" d="M313.37,8.34c0.22,0,0.37-0.19,0.37-0.37c0-0.22-0.19-0.37-0.37-0.37c-0.22,0-0.37,0.19-0.37,0.37
					C313,8.19,313.19,8.34,313.37,8.34z"/>
			</g>
		</g>
	</g>
	<g id="SH">
		<polygon class="st4" points="279.22,27.08 280.82,27.08 280.82,2.88 279.22,2.88 279.22,13.83 266.56,13.83 266.56,2.88 
			264.97,2.88 264.97,27.08 266.56,27.08 266.56,15.32 279.22,15.32 		"/>
		<path class="st4" d="M244.44,24.34c1.86,1.97,4.31,3.27,7.65,3.34c3.6,0.07,7.61-2.08,7.61-6.35c0-4.46-3.53-5.79-6.94-7.09
			c-2.19-0.85-5.94-2-5.94-5.75c0-2.82,2.52-4.75,5.75-4.68c1.86,0.04,3.71,0.93,5.49,2.41l0.97-1.11c-2.15-1.93-4.38-2.75-6.5-2.78
			c-4.01-0.07-7.31,2.26-7.31,6.16c0,4.75,4.12,6.05,6.68,7.05c2.97,1.19,6.16,2.34,6.16,5.79c0,2.82-2.64,4.94-6.16,4.83
			c-2.52-0.07-4.53-0.93-6.35-2.86L244.44,24.34z"/>
	</g>
</g>
</svg>
