<?xml version="1.0" encoding="utf-8"?>
<!-- Generator: Adobe Illustrator 26.0.2, SVG Export Plug-In . SVG Version: 6.00 Build 0)  -->
<svg version="1.1" xmlns="http://www.w3.org/2000/svg" xmlns:xlink="http://www.w3.org/1999/xlink" x="0px" y="0px"
	 viewBox="0 0 773.55 208.67" style="enable-background:new 0 0 773.55 208.67;" xml:space="preserve">
<style type="text/css">
	.st0{fill:#EF533A;}
	.st1{fill:#29396D;}
</style>
<g id="Ebene_1">
</g>
<g id="content">
	<path class="st0" d="M173.44,142.47l-62.83-36.27V33.65c0-1.57-1.27-2.85-2.85-2.85s-2.85,1.27-2.85,2.85v72.55l-62.83,36.27
		c-1.36,0.79-1.83,2.53-1.04,3.89c0.52,0.91,1.48,1.42,2.46,1.42c0.48,0,0.97-0.12,1.42-0.38l62.83-36.27l62.83,36.27
		c0.45,0.26,0.94,0.38,1.42,0.38c0.98,0,1.94-0.51,2.46-1.42C175.27,145,174.8,143.26,173.44,142.47z"/>
	<path class="st1" d="M170.62,97.96c0.45,0.26,0.94,0.38,1.42,0.38c0.98,0,1.94-0.51,2.46-1.42c0.79-1.36,0.32-3.1-1.04-3.89
		l-20.02-11.56V58.36c0-1.57-1.27-2.85-2.85-2.85s-2.85,1.27-2.85,2.85v19.83l-15.72-9.08V46.04c0-1.57-1.27-2.85-2.85-2.85
		c-1.57,0-2.85,1.27-2.85,2.85v19.78l-17.15-9.9c-0.03-0.01-0.05-0.02-0.08-0.04c-0.1-0.05-0.2-0.1-0.3-0.14
		c-0.07-0.03-0.14-0.06-0.21-0.08c-0.11-0.03-0.22-0.06-0.33-0.08c-0.07-0.01-0.13-0.03-0.2-0.03c-0.13-0.01-0.25-0.01-0.38-0.01
		c-0.05,0-0.11,0-0.16,0c-0.13,0.01-0.26,0.04-0.39,0.07c-0.05,0.01-0.1,0.02-0.15,0.03c-0.12,0.03-0.23,0.08-0.35,0.13
		c-0.06,0.03-0.12,0.05-0.18,0.08c-0.04,0.02-0.08,0.03-0.12,0.05l-17.15,9.9V46.04c0-1.57-1.27-2.85-2.85-2.85
		s-2.85,1.27-2.85,2.85V69.1l-15.73,9.08v-19.8c0-1.57-1.27-2.85-2.85-2.85c-1.57,0-2.85,1.27-2.85,2.85v23.09L42.07,93.03
		c-1.36,0.79-1.83,2.53-1.04,3.89c0.52,0.91,1.48,1.42,2.46,1.42c0.48,0,0.97-0.12,1.42-0.38l17.17-9.91v18.16l-19.97,11.53
		c-1.36,0.79-1.83,2.53-1.04,3.89c0.52,0.91,1.48,1.42,2.46,1.42c0.48,0,0.97-0.12,1.42-0.38l17.13-9.89v19.83
		c0,1.19,0.73,2.2,1.76,2.63l16.82,9.71l-17.13,9.89c-1.36,0.79-1.83,2.53-1.04,3.89c0.52,0.91,1.48,1.42,2.46,1.42
		c0.48,0,0.97-0.12,1.42-0.38l19.97-11.53l15.72,9.08l-17.17,9.91c-1.36,0.79-1.83,2.53-1.04,3.89c0.52,0.91,1.48,1.42,2.46,1.42
		c0.48,0,0.97-0.12,1.42-0.38l20.01-11.56l20.03,11.57c0.45,0.26,0.94,0.38,1.42,0.38c0.98,0,1.94-0.51,2.46-1.42
		c0.79-1.36,0.32-3.1-1.04-3.89l-17.19-9.92l15.72-9.08l19.98,11.53c0.45,0.26,0.94,0.38,1.42,0.38c0.98,0,1.94-0.51,2.46-1.42
		c0.79-1.36,0.32-3.1-1.04-3.89l-17.13-9.89l17.15-9.9c0.03-0.02,0.06-0.05,0.09-0.07c0.07-0.05,0.14-0.1,0.21-0.15
		c0.08-0.06,0.16-0.12,0.24-0.19c0.06-0.05,0.11-0.11,0.16-0.17c0.07-0.08,0.14-0.16,0.2-0.24c0.05-0.06,0.08-0.13,0.12-0.2
		c0.05-0.09,0.1-0.18,0.15-0.27c0.03-0.08,0.06-0.15,0.09-0.23c0.03-0.09,0.07-0.19,0.09-0.29c0.02-0.08,0.03-0.16,0.04-0.24
		c0.02-0.1,0.03-0.21,0.03-0.31c0-0.03,0.01-0.06,0.01-0.09v-19.8l17.13,9.89c0.45,0.26,0.94,0.38,1.42,0.38
		c0.98,0,1.94-0.51,2.46-1.42c0.79-1.36,0.32-3.1-1.04-3.89l-19.97-11.53V88.04L170.62,97.96z M107.77,61.67l18.57,10.72v18.16
		l-16.83-9.72c-0.41-0.31-0.9-0.5-1.41-0.55c0,0,0,0-0.01,0c-0.14-0.01-0.27-0.02-0.41-0.01c-0.06,0-0.13,0-0.19,0.01
		c-0.07,0.01-0.13,0.02-0.2,0.03c-0.14,0.02-0.27,0.05-0.4,0.09c0,0,0,0,0,0c-0.3,0.09-0.58,0.23-0.83,0.41L89.2,90.55V72.39
		L107.77,61.67z M126.34,118.56l-18.57,10.72L89.2,118.56V97.12l18.57-10.72l18.57,10.72V118.56z M67.78,84.75l15.73-9.08v18.16
		l-15.73,9.08V84.75z M67.78,130.93v-21.44l15.73-9.08v19.44c-0.06,0.5,0.02,1,0.21,1.45c0.01,0.02,0.02,0.04,0.02,0.07
		c0.05,0.1,0.1,0.2,0.16,0.29c0.05,0.08,0.09,0.16,0.14,0.23c0.03,0.03,0.05,0.07,0.08,0.1c0.29,0.37,0.66,0.67,1.09,0.86
		l16.86,9.74l-15.72,9.08L67.78,130.93z M107.77,154.02l-15.72-9.08l15.72-9.08l15.72,9.08L107.77,154.02z M147.75,130.93
		l-18.57,10.72l-15.72-9.08l16.83-9.72c0.47-0.2,0.87-0.53,1.18-0.93c0-0.01,0.01-0.01,0.01-0.02c0.08-0.11,0.14-0.22,0.21-0.34
		c0.03-0.06,0.07-0.12,0.1-0.18c0.03-0.06,0.05-0.12,0.07-0.19c0.05-0.13,0.09-0.26,0.12-0.39c0-0.01,0-0.01,0-0.02
		c0.05-0.25,0.07-0.51,0.06-0.77v-19.61l15.72,9.08V130.93z M147.75,102.91l-15.72-9.08V75.68l15.72,9.08V102.91z"/>
	<path class="st1" d="M260.16,45.5h-14.59v41.32h14.59c6.47,0,11.5-1.78,15.12-5.35c3.61-3.57,5.41-8.67,5.41-15.31
		c0-6.64-1.81-11.74-5.41-15.31C271.66,47.28,266.63,45.5,260.16,45.5z M270.21,77.2c-2.32,2.61-5.67,3.91-10.05,3.91h-7.89V51.19
		h7.89c4.38,0,7.73,1.3,10.05,3.91c2.31,2.61,3.47,6.29,3.47,11.05S272.52,74.6,270.21,77.2z"/>
	<path class="st1" d="M293.46,50.25c1.42,0,2.51-0.37,3.28-1.1c0.77-0.73,1.16-1.76,1.16-3.1c0-1.33-0.39-2.36-1.16-3.07
		c-0.77-0.71-1.87-1.06-3.28-1.06c-1.46,0-2.58,0.36-3.35,1.06c-0.77,0.71-1.16,1.73-1.16,3.07c0,1.34,0.38,2.37,1.16,3.1
		C290.88,49.89,292,50.25,293.46,50.25z"/>
	<rect x="290.08" y="55.51" class="st1" width="6.7" height="31.3"/>
	<path class="st1" d="M333.46,95.42c1.37-1.57,2.06-3.43,2.06-5.6c0-2.46-0.87-4.39-2.63-5.79c-1.75-1.4-4.21-2.1-7.39-2.1h-9.39
		c-1.42,0-2.52-0.25-3.29-0.75c-0.77-0.5-1.16-1.27-1.16-2.31c0-0.88,0.39-1.67,1.19-2.38c0.44-0.4,1.08-0.7,1.87-0.92
		c1.43,0.32,3.01,0.49,4.77,0.49c2.75,0,5.14-0.44,7.16-1.31c2.03-0.88,3.59-2.11,4.7-3.69c1.11-1.59,1.66-3.44,1.66-5.57
		s-0.56-3.98-1.66-5.57c-0.47-0.68-1.05-1.28-1.69-1.83c0.19-1.11,0.68-1.99,1.48-2.65c1.04-0.85,2.57-1.28,4.57-1.28
		c0.13,0,0.25,0.01,0.38,0.03c0.12,0.02,0.25,0.03,0.37,0.03l-1.06-5.26c-0.08,0-0.17,0-0.25,0s-0.17,0-0.25,0
		c-1.67,0-3.16,0.38-4.48,1.13c-1.31,0.75-2.32,1.78-3.03,3.1c-0.49,0.9-0.79,1.89-0.94,2.96c-1.98-0.82-4.29-1.23-6.94-1.23
		c-2.67,0-5.02,0.44-7.04,1.31c-2.03,0.88-3.6,2.11-4.73,3.69c-1.13,1.59-1.69,3.44-1.69,5.57c0,3.17,1.16,5.73,3.47,7.67
		c0.45,0.38,0.95,0.7,1.47,1.01c-1.03,0.37-1.91,0.87-2.63,1.53c-1.38,1.25-2.07,2.78-2.07,4.57c0,1.79,0.53,3.18,1.6,4.16
		c0.6,0.55,1.33,1,2.15,1.36c-1.58,0.35-2.78,0.94-3.59,1.8c-1.19,1.25-1.78,2.71-1.78,4.38c0,2.38,1.23,4.36,3.7,5.95
		c2.46,1.59,6.26,2.38,11.39,2.38c3.05,0,5.75-0.42,8.11-1.25C330.22,98.18,332.08,96.98,333.46,95.42z M314.71,61.18
		c1.27-1.06,2.87-1.6,4.79-1.6c1.96,0,3.58,0.53,4.85,1.6c1.27,1.06,1.91,2.49,1.91,4.29c0,1.8-0.63,3.23-1.91,4.32
		c-1.27,1.09-2.89,1.63-4.85,1.63c-1.92,0-3.52-0.54-4.79-1.63c-1.27-1.08-1.91-2.52-1.91-4.32
		C312.81,63.67,313.44,62.24,314.71,61.18z M319.75,95.26c-2.96,0-5.28-0.4-6.95-1.19c-1.67-0.79-2.51-1.88-2.51-3.25
		c0-1.04,0.39-1.87,1.19-2.47c0.79-0.61,1.77-0.91,2.94-0.91h10.08c2,0,3.39,0.29,4.16,0.88c0.77,0.58,1.16,1.36,1.16,2.31
		c0,0.83-0.36,1.6-1.09,2.28c-0.73,0.69-1.83,1.25-3.32,1.69C323.94,95.04,322.05,95.26,319.75,95.26z"/>
	<rect x="344.29" y="55.51" class="st1" width="6.7" height="31.3"/>
	<path class="st1" d="M347.67,50.25c1.42,0,2.51-0.37,3.28-1.1c0.77-0.73,1.16-1.76,1.16-3.1c0-1.33-0.39-2.36-1.16-3.07
		c-0.77-0.71-1.87-1.06-3.28-1.06c-1.46,0-2.58,0.36-3.35,1.06c-0.77,0.71-1.16,1.73-1.16,3.07c0,1.34,0.38,2.37,1.16,3.1
		C345.09,49.89,346.21,50.25,347.67,50.25z"/>
	<path class="st1" d="M377.65,81.33c-0.83,0.36-1.82,0.53-2.94,0.53c-1.38,0-2.47-0.35-3.29-1.06c-0.81-0.71-1.22-1.83-1.22-3.38
		V60.77h10.77v-5.26H370.2v-9.2l-6.7,1.88v7.33h-6.01v5.26h6.01v17.78c0.04,2.13,0.48,3.85,1.32,5.17c0.83,1.31,2,2.26,3.51,2.85
		c1.5,0.58,3.15,0.88,4.95,0.88c1.71,0,3.26-0.24,4.66-0.72c1.39-0.48,2.57-1.14,3.53-1.97l-1.5-4.89
		C379.26,80.49,378.49,80.98,377.65,81.33z"/>
	<path class="st1" d="M414.14,79.99V66.03c0-2.55-0.55-4.63-1.66-6.26s-2.62-2.85-4.54-3.66c-1.92-0.81-4.13-1.22-6.64-1.22
		c-3.67,0-6.66,0.77-8.98,2.31c-2.32,1.54-3.87,3.59-4.66,6.14l5.64,2.38c0.62-1.96,1.61-3.38,2.94-4.26
		c1.33-0.88,2.94-1.31,4.82-1.31c2.01,0,3.58,0.58,4.73,1.72c1.14,1.15,1.72,2.76,1.72,4.85v1.2l-11.14,2.18
		c-2.8,0.54-4.95,1.56-6.47,3.07c-1.53,1.5-2.28,3.42-2.28,5.76c0,1.88,0.44,3.45,1.34,4.73c0.89,1.28,2.13,2.22,3.69,2.85
		c1.57,0.63,3.33,0.94,5.29,0.94c1.58,0,3.15-0.26,4.7-0.78c1.54-0.52,2.9-1.31,4.07-2.38c0.47-0.43,0.86-0.91,1.2-1.43
		c0.15,0.57,0.36,1.09,0.65,1.55c0.61,0.98,1.44,1.71,2.51,2.19c1.06,0.48,2.26,0.72,3.6,0.72c1.46,0,2.67-0.23,3.63-0.69l0.37-4.63
		c-0.71,0.21-1.44,0.31-2.19,0.31C414.92,82.3,414.14,81.53,414.14,79.99z M407.51,75.23c0,1.25-0.22,2.33-0.66,3.23
		c-0.44,0.9-1.06,1.63-1.85,2.19c-0.79,0.56-1.68,0.97-2.66,1.22c-0.98,0.25-2,0.38-3.03,0.38c-1.5,0-2.7-0.34-3.6-1.03
		c-0.89-0.69-1.34-1.62-1.34-2.79c0-1.21,0.44-2.13,1.32-2.75c0.87-0.63,2.19-1.11,3.94-1.44l7.89-1.62V75.23z"/>
	<path class="st1" d="M434.44,87.16c0.92-0.19,1.73-0.45,2.44-0.78l0.75-5.01c-0.79,0.29-1.45,0.49-1.97,0.59
		c-0.52,0.11-1.16,0.16-1.91,0.16c-1.25,0-2.15-0.29-2.69-0.88c-0.54-0.58-0.82-1.65-0.82-3.19V41.42h-6.7v37.19
		c0,3,0.66,5.23,1.97,6.67c1.31,1.44,3.37,2.16,6.16,2.16C432.6,87.44,433.52,87.34,434.44,87.16z"/>
	<polygon class="st1" points="470.68,45.5 463.99,45.5 463.99,86.81 493.47,86.81 493.47,81.05 470.68,81.05 	"/>
	<path class="st1" d="M521.58,56.76c-2.13-1.25-4.72-1.88-7.76-1.88c-2.96,0-5.61,0.65-7.95,1.94c-2.34,1.29-4.16,3.16-5.48,5.6
		c-1.32,2.44-1.97,5.35-1.97,8.73c0,3.38,0.66,6.29,1.97,8.73c1.32,2.44,3.16,4.31,5.54,5.6c2.38,1.29,5.14,1.94,8.26,1.94
		c2.08,0,4.01-0.29,5.76-0.88s3.27-1.43,4.54-2.53c1.27-1.11,2.28-2.41,3.03-3.91l-5.32-2.51c-0.76,1.42-1.78,2.53-3.07,3.32
		c-1.29,0.79-2.98,1.19-5.07,1.19c-1.88,0-3.51-0.42-4.88-1.25c-1.38-0.83-2.45-2.07-3.2-3.69c-0.53-1.15-0.87-2.5-1.02-4.01h22.94
		c0.08-0.5,0.14-1.08,0.18-1.75c0.04-0.67,0.07-1.38,0.07-2.13c0-2.75-0.57-5.22-1.7-7.39C525.34,59.73,523.71,58.01,521.58,56.76z
		 M505.12,68.03c0.18-1.05,0.45-2,0.81-2.85c0.71-1.65,1.73-2.89,3.07-3.73c1.33-0.83,2.9-1.25,4.7-1.25c2.46,0,4.4,0.76,5.82,2.28
		c1.25,1.34,1.95,3.19,2.1,5.54H505.12z"/>
	<path class="st1" d="M561.96,79.99V66.03c0-2.55-0.56-4.63-1.66-6.26s-2.62-2.85-4.54-3.66c-1.92-0.81-4.13-1.22-6.64-1.22
		c-3.67,0-6.67,0.77-8.99,2.31c-2.31,1.54-3.87,3.59-4.66,6.14l5.64,2.38c0.63-1.96,1.61-3.38,2.94-4.26
		c1.34-0.88,2.95-1.31,4.82-1.31c2,0,3.58,0.58,4.72,1.72c1.15,1.15,1.72,2.76,1.72,4.85v1.2l-11.14,2.18
		c-2.8,0.54-4.96,1.56-6.48,3.07c-1.52,1.5-2.28,3.42-2.28,5.76c0,1.88,0.45,3.45,1.34,4.73c0.9,1.28,2.13,2.22,3.7,2.85
		c1.56,0.63,3.33,0.94,5.29,0.94c1.58,0,3.15-0.26,4.69-0.78c1.55-0.52,2.9-1.31,4.07-2.38c0.47-0.43,0.85-0.91,1.19-1.43
		c0.15,0.57,0.36,1.09,0.65,1.55c0.61,0.98,1.44,1.71,2.5,2.19c1.07,0.48,2.27,0.72,3.6,0.72c1.46,0,2.67-0.23,3.63-0.69l0.38-4.63
		c-0.71,0.21-1.44,0.31-2.19,0.31C562.73,82.3,561.96,81.53,561.96,79.99z M555.32,75.23c0,1.25-0.22,2.33-0.66,3.23
		s-1.06,1.63-1.85,2.19c-0.79,0.56-1.68,0.97-2.66,1.22c-0.98,0.25-2,0.38-3.04,0.38c-1.5,0-2.7-0.34-3.6-1.03
		c-0.9-0.69-1.34-1.62-1.34-2.79c0-1.21,0.43-2.13,1.31-2.75s2.19-1.11,3.95-1.44l7.89-1.62V75.23z"/>
	<path class="st1" d="M589.69,54.88c-2.42,0-4.46,0.53-6.1,1.6c-1.65,1.06-2.9,2.62-3.73,4.67l-0.62-5.64h-5.7v31.3h6.7V70.22
		c0-2.13,0.41-3.88,1.22-5.26c0.81-1.38,1.85-2.41,3.1-3.1c1.25-0.69,2.52-1.03,3.82-1.03c0.96,0,1.72,0.05,2.28,0.16
		c0.57,0.11,1.08,0.24,1.53,0.41l0.94-5.89c-0.42-0.21-0.94-0.36-1.56-0.47C590.94,54.94,590.31,54.88,589.69,54.88z"/>
	<path class="st1" d="M620.9,56.17c-1.77-0.86-3.77-1.28-5.98-1.28c-1.71,0-3.33,0.27-4.85,0.81s-2.84,1.41-3.94,2.6
		c-0.71,0.77-1.31,1.68-1.81,2.69l-0.3-5.48h-5.95v31.3h6.7V70.16c0-2.38,0.43-4.28,1.28-5.7c0.86-1.42,1.93-2.45,3.22-3.1
		c1.29-0.64,2.63-0.97,4.01-0.97c1.92,0,3.52,0.59,4.79,1.78c1.27,1.19,1.91,3.33,1.91,6.42v18.22h6.7V66.53
		c0-2.63-0.52-4.8-1.57-6.51C624.08,58.31,622.67,57.02,620.9,56.17z"/>
	<rect x="636.46" y="55.51" class="st1" width="6.7" height="31.3"/>
	<path class="st1" d="M639.84,41.92c-1.46,0-2.58,0.36-3.35,1.06c-0.77,0.71-1.16,1.73-1.16,3.07c0,1.34,0.38,2.37,1.16,3.1
		c0.77,0.73,1.89,1.1,3.35,1.1c1.42,0,2.51-0.37,3.28-1.1c0.77-0.73,1.16-1.76,1.16-3.1c0-1.33-0.39-2.36-1.16-3.07
		C642.35,42.28,641.25,41.92,639.84,41.92z"/>
	<path class="st1" d="M677.05,56.17c-1.77-0.86-3.77-1.28-5.98-1.28c-1.71,0-3.33,0.27-4.85,0.81c-1.52,0.54-2.84,1.41-3.94,2.6
		c-0.71,0.77-1.31,1.68-1.81,2.69l-0.3-5.48h-5.95v31.3h6.7V70.16c0-2.38,0.43-4.28,1.28-5.7c0.86-1.42,1.93-2.45,3.22-3.1
		c1.29-0.64,2.63-0.97,4.01-0.97c1.92,0,3.52,0.59,4.79,1.78c1.27,1.19,1.91,3.33,1.91,6.42v18.22h6.7V66.53
		c0-2.63-0.52-4.8-1.57-6.51C680.23,58.31,678.82,57.02,677.05,56.17z"/>
	<path class="st1" d="M721.15,48.94c-0.08,0-0.17,0-0.25,0s-0.17,0-0.25,0c-1.67,0-3.16,0.38-4.47,1.13
		c-1.32,0.75-2.33,1.78-3.03,3.1c-0.49,0.9-0.79,1.89-0.95,2.96c-1.98-0.82-4.29-1.23-6.94-1.23c-2.67,0-5.02,0.44-7.04,1.31
		c-2.02,0.88-3.6,2.11-4.72,3.69c-1.13,1.59-1.69,3.44-1.69,5.57c0,3.17,1.16,5.73,3.47,7.67c0.45,0.38,0.95,0.7,1.47,1.01
		c-1.03,0.37-1.91,0.87-2.63,1.53c-1.38,1.25-2.06,2.78-2.06,4.57c0,1.79,0.53,3.18,1.6,4.16c0.6,0.56,1.33,1,2.15,1.36
		c-1.58,0.35-2.78,0.94-3.59,1.8c-1.19,1.25-1.78,2.71-1.78,4.38c0,2.38,1.23,4.36,3.69,5.95c2.46,1.59,6.26,2.38,11.39,2.38
		c3.05,0,5.75-0.42,8.11-1.25c2.36-0.84,4.22-2.03,5.6-3.6c1.38-1.57,2.07-3.43,2.07-5.6c0-2.46-0.88-4.39-2.63-5.79
		c-1.76-1.4-4.22-2.1-7.39-2.1h-9.39c-1.42,0-2.51-0.25-3.28-0.75c-0.77-0.5-1.16-1.27-1.16-2.31c0-0.88,0.4-1.67,1.19-2.38
		c0.44-0.39,1.08-0.7,1.87-0.92c1.43,0.32,3.01,0.49,4.77,0.49c2.76,0,5.15-0.44,7.17-1.31c2.02-0.88,3.59-2.11,4.7-3.69
		c1.11-1.59,1.66-3.44,1.66-5.57s-0.55-3.98-1.66-5.57c-0.47-0.68-1.05-1.28-1.69-1.83c0.19-1.11,0.67-1.99,1.47-2.65
		c1.04-0.85,2.57-1.28,4.57-1.28c0.12,0,0.25,0.01,0.37,0.03c0.13,0.02,0.25,0.03,0.38,0.03L721.15,48.94z M700.18,87.44h10.08
		c2.01,0,3.39,0.29,4.16,0.88c0.77,0.58,1.16,1.36,1.16,2.31c0,0.83-0.37,1.6-1.09,2.28c-0.73,0.69-1.84,1.25-3.32,1.69
		c-1.48,0.44-3.37,0.66-5.67,0.66c-2.96,0-5.28-0.4-6.95-1.19c-1.67-0.79-2.51-1.88-2.51-3.25c0-1.04,0.4-1.87,1.19-2.47
		C698.03,87.74,699.02,87.44,700.18,87.44z M710.1,69.78c-1.27,1.09-2.89,1.63-4.85,1.63c-1.92,0-3.51-0.54-4.79-1.63
		c-1.28-1.08-1.91-2.52-1.91-4.32c0-1.8,0.63-3.22,1.91-4.29c1.27-1.06,2.87-1.6,4.79-1.6c1.96,0,3.58,0.53,4.85,1.6
		c1.27,1.06,1.91,2.49,1.91,4.29C712.02,67.26,711.38,68.7,710.1,69.78z"/>
	<path class="st1" d="M269.45,152.13c-1.86,1.31-4.06,1.97-6.6,1.97c-2.63,0-4.89-0.6-6.76-1.81c-1.87-1.21-3.32-2.97-4.32-5.29
		c-1-2.31-1.5-5.1-1.5-8.36c0-3.3,0.53-6.09,1.6-8.39c1.07-2.3,2.56-4.05,4.48-5.26c1.92-1.21,4.15-1.82,6.7-1.82
		s4.61,0.58,6.2,1.72c1.58,1.15,2.8,2.95,3.63,5.42l6.32-2.82c-0.83-2.25-2.02-4.13-3.57-5.64c-1.55-1.5-3.41-2.63-5.6-3.38
		c-2.2-0.75-4.65-1.13-7.36-1.13c-3.92,0-7.35,0.86-10.27,2.57c-2.92,1.71-5.17,4.15-6.76,7.33c-1.58,3.17-2.38,6.97-2.38,11.39
		c0,4.42,0.79,8.22,2.38,11.39c1.59,3.17,3.84,5.61,6.76,7.33c2.92,1.71,6.36,2.56,10.33,2.56c2.72,0,5.2-0.44,7.45-1.31
		c2.25-0.88,4.21-2.18,5.89-3.91c1.67-1.73,2.92-3.85,3.76-6.35l-6.39-2.13C272.63,148.84,271.3,150.81,269.45,152.13z"/>
	<path class="st1" d="M312.8,152.47v-13.96c0-2.55-0.55-4.63-1.66-6.26c-1.11-1.63-2.62-2.85-4.54-3.66
		c-1.92-0.81-4.13-1.22-6.64-1.22c-3.67,0-6.66,0.77-8.98,2.31c-2.32,1.55-3.87,3.59-4.66,6.14l5.64,2.38
		c0.62-1.96,1.61-3.38,2.94-4.26c1.33-0.88,2.94-1.31,4.82-1.31c2.01,0,3.58,0.58,4.73,1.72c1.14,1.15,1.72,2.76,1.72,4.85v1.2
		l-11.14,2.18c-2.8,0.54-4.95,1.56-6.47,3.07c-1.53,1.5-2.28,3.42-2.28,5.76c0,1.88,0.44,3.45,1.34,4.73
		c0.89,1.28,2.13,2.22,3.69,2.85c1.57,0.63,3.33,0.94,5.29,0.94c1.58,0,3.15-0.26,4.7-0.78c1.55-0.52,2.9-1.31,4.07-2.38
		c0.47-0.43,0.86-0.91,1.2-1.43c0.15,0.57,0.36,1.09,0.65,1.55c0.61,0.98,1.44,1.71,2.51,2.19c1.06,0.48,2.26,0.72,3.6,0.72
		c1.46,0,2.67-0.23,3.63-0.69l0.37-4.63c-0.71,0.21-1.44,0.31-2.19,0.31C313.57,154.79,312.8,154.02,312.8,152.47z M306.16,147.71
		c0,1.25-0.22,2.33-0.66,3.23c-0.44,0.9-1.06,1.63-1.85,2.19c-0.79,0.56-1.68,0.97-2.66,1.22c-0.98,0.25-2,0.38-3.03,0.38
		c-1.5,0-2.7-0.34-3.6-1.03c-0.89-0.69-1.34-1.62-1.34-2.79c0-1.21,0.44-2.13,1.32-2.75c0.87-0.63,2.19-1.11,3.94-1.44l7.89-1.62
		V147.71z"/>
	<path class="st1" d="M367.77,128.62c-1.76-0.83-3.63-1.25-5.64-1.25c-1.38,0-2.78,0.22-4.2,0.66c-1.42,0.44-2.71,1.12-3.88,2.03
		c-1.17,0.92-2.09,2.07-2.76,3.44c-0.96-2.04-2.39-3.58-4.29-4.6c-1.9-1.02-3.98-1.53-6.23-1.53c-2.05,0-3.97,0.48-5.79,1.44
		c-1.82,0.96-3.27,2.44-4.35,4.44l-0.31-5.26h-5.95v31.3h6.7v-16.65c0-2.34,0.42-4.22,1.25-5.64c0.83-1.42,1.88-2.46,3.13-3.13
		c1.26-0.67,2.51-1,3.76-1c1.88,0,3.42,0.56,4.64,1.69c1.21,1.13,1.81,2.97,1.81,5.51v19.22h6.7v-17.03c0-2.04,0.37-3.77,1.12-5.16
		c0.76-1.4,1.75-2.45,2.97-3.16c1.23-0.71,2.58-1.06,4.04-1.06c1.88,0,3.42,0.56,4.64,1.69c1.21,1.13,1.81,2.97,1.81,5.51v19.22h6.7
		v-20.28c0-2.67-0.54-4.86-1.62-6.57C370.94,130.73,369.52,129.46,367.77,128.62z"/>
	<path class="st1" d="M408.34,129.31c-2.09-1.29-4.41-1.94-6.95-1.94c-1.88,0-3.6,0.35-5.16,1.06c-1.57,0.71-2.87,1.69-3.91,2.94
		c-0.64,0.77-1.17,1.61-1.6,2.52l-0.34-5.91h-5.95v44.45h6.7v-18.33c0.79,1.44,1.88,2.68,3.26,3.71c1.88,1.4,4.15,2.1,6.82,2.1
		c2.59,0,4.94-0.64,7.05-1.94c2.11-1.29,3.77-3.16,5.01-5.6c1.23-2.44,1.85-5.37,1.85-8.8c0-3.42-0.61-6.33-1.82-8.73
		S410.42,130.6,408.34,129.31z M406.11,151.6c-1.53,1.92-3.65,2.88-6.36,2.88c-1.75,0-3.27-0.44-4.57-1.31
		c-1.29-0.88-2.3-2.13-3.01-3.75c-0.71-1.63-1.06-3.55-1.06-5.76c0-2.25,0.37-4.18,1.09-5.79c0.73-1.61,1.75-2.86,3.07-3.76
		c1.32-0.89,2.85-1.35,4.6-1.35c2.67,0,4.76,0.97,6.26,2.91c1.51,1.94,2.26,4.6,2.26,7.98S407.64,149.68,406.11,151.6z"/>
	<path class="st1" d="M445.83,144.96c0,1.63-0.22,3.05-0.66,4.26c-0.44,1.21-1.06,2.2-1.85,2.97c-0.79,0.77-1.68,1.34-2.66,1.69
		c-0.98,0.36-1.99,0.53-3.03,0.53c-2.17,0-3.86-0.53-5.07-1.6c-1.21-1.06-1.82-3.02-1.82-5.85V128h-6.7v20.66
		c0,2.67,0.52,4.84,1.56,6.51c1.04,1.67,2.43,2.88,4.16,3.63c1.73,0.75,3.62,1.13,5.67,1.13c2.5,0,4.67-0.46,6.51-1.38
		c1.83-0.92,3.3-2.36,4.39-4.32l0.31,5.07h5.89V128h-6.7V144.96z"/>
	<path class="st1" d="M480.39,141.77l-7.14-1.5c-1.63-0.33-2.76-0.81-3.38-1.44c-0.63-0.63-0.94-1.36-0.94-2.19
		c0-0.79,0.25-1.48,0.75-2.07c0.5-0.58,1.23-1.04,2.19-1.38c0.96-0.33,2.11-0.5,3.45-0.5c1.67,0,3.27,0.41,4.82,1.22
		c1.55,0.81,2.71,2.06,3.51,3.72l4.63-3.88c-1.17-2.05-2.86-3.62-5.07-4.73c-2.21-1.11-4.89-1.66-8.01-1.66
		c-2.71,0-5.04,0.45-6.98,1.34c-1.94,0.9-3.41,2.08-4.41,3.54c-1,1.46-1.5,3.05-1.5,4.76c0,2.3,0.71,4.18,2.13,5.67
		c1.42,1.48,3.8,2.56,7.14,3.22l6.57,1.38c1.46,0.33,2.45,0.8,2.97,1.41c0.52,0.6,0.78,1.3,0.78,2.1c0,1.21-0.56,2.15-1.69,2.82
		c-1.13,0.67-2.65,1-4.57,1c-2.42,0-4.5-0.51-6.23-1.53c-1.73-1.02-3.06-2.39-3.97-4.1l-4.64,4.01c1.51,2.21,3.55,3.92,6.14,5.13
		c2.59,1.21,5.45,1.81,8.58,1.81c2.71,0,5.05-0.42,7.01-1.25c1.96-0.84,3.46-2.01,4.51-3.54s1.56-3.29,1.56-5.29s-0.61-3.7-1.85-5.1
		C485.51,143.34,483.39,142.35,480.39,141.77z"/>
</g>
</svg>
